%TF.GenerationSoftware,KiCad,Pcbnew,10.0.3*%
%TF.CreationDate,2026-07-12T13:22:38+09:00*%
%TF.ProjectId,WeAct-Adapter-5V,57654163-742d-4416-9461-707465722d35,rev?*%
%TF.SameCoordinates,Original*%
%TF.FileFunction,Legend,Top*%
%TF.FilePolarity,Positive*%
%FSLAX46Y46*%
G04 Gerber Fmt 4.6, Leading zero omitted, Abs format (unit mm)*
G04 Created by KiCad (PCBNEW 10.0.3) date 2026-07-12 13:22:38*
%MOMM*%
%LPD*%
G01*
G04 APERTURE LIST*
G04 Aperture macros list*
%AMRoundRect*
0 Rectangle with rounded corners*
0 $1 Rounding radius*
0 $2 $3 $4 $5 $6 $7 $8 $9 X,Y pos of 4 corners*
0 Add a 4 corners polygon primitive as box body*
4,1,4,$2,$3,$4,$5,$6,$7,$8,$9,$2,$3,0*
0 Add four circle primitives for the rounded corners*
1,1,$1+$1,$2,$3*
1,1,$1+$1,$4,$5*
1,1,$1+$1,$6,$7*
1,1,$1+$1,$8,$9*
0 Add four rect primitives between the rounded corners*
20,1,$1+$1,$2,$3,$4,$5,0*
20,1,$1+$1,$4,$5,$6,$7,0*
20,1,$1+$1,$6,$7,$8,$9,0*
20,1,$1+$1,$8,$9,$2,$3,0*%
G04 Aperture macros list end*
%ADD10C,0.150000*%
%ADD11C,0.093472*%
%ADD12C,0.114300*%
%ADD13C,0.127000*%
%ADD14C,0.200000*%
%ADD15C,1.879600*%
%ADD16C,1.303200*%
%ADD17RoundRect,0.101600X-2.000000X1.000000X-2.000000X-1.000000X2.000000X-1.000000X2.000000X1.000000X0*%
%ADD18RoundRect,1.101600X-1.000000X0.000010X-1.000000X-0.000010X1.000000X-0.000010X1.000000X0.000010X0*%
G04 APERTURE END LIST*
D10*
X142328571Y-99858557D02*
X141899999Y-99858557D01*
X141899999Y-99858557D02*
X141857142Y-100287128D01*
X141857142Y-100287128D02*
X141899999Y-100244271D01*
X141899999Y-100244271D02*
X141985714Y-100201414D01*
X141985714Y-100201414D02*
X142199999Y-100201414D01*
X142199999Y-100201414D02*
X142285714Y-100244271D01*
X142285714Y-100244271D02*
X142328571Y-100287128D01*
X142328571Y-100287128D02*
X142371428Y-100372842D01*
X142371428Y-100372842D02*
X142371428Y-100587128D01*
X142371428Y-100587128D02*
X142328571Y-100672842D01*
X142328571Y-100672842D02*
X142285714Y-100715700D01*
X142285714Y-100715700D02*
X142199999Y-100758557D01*
X142199999Y-100758557D02*
X141985714Y-100758557D01*
X141985714Y-100758557D02*
X141899999Y-100715700D01*
X141899999Y-100715700D02*
X141857142Y-100672842D01*
X142628571Y-99858557D02*
X142928571Y-100758557D01*
X142928571Y-100758557D02*
X143228571Y-99858557D01*
X156742857Y-99858557D02*
X156914285Y-99858557D01*
X156914285Y-99858557D02*
X157000000Y-99901414D01*
X157000000Y-99901414D02*
X157085714Y-99987128D01*
X157085714Y-99987128D02*
X157128571Y-100158557D01*
X157128571Y-100158557D02*
X157128571Y-100458557D01*
X157128571Y-100458557D02*
X157085714Y-100629985D01*
X157085714Y-100629985D02*
X157000000Y-100715700D01*
X157000000Y-100715700D02*
X156914285Y-100758557D01*
X156914285Y-100758557D02*
X156742857Y-100758557D01*
X156742857Y-100758557D02*
X156657143Y-100715700D01*
X156657143Y-100715700D02*
X156571428Y-100629985D01*
X156571428Y-100629985D02*
X156528571Y-100458557D01*
X156528571Y-100458557D02*
X156528571Y-100158557D01*
X156528571Y-100158557D02*
X156571428Y-99987128D01*
X156571428Y-99987128D02*
X156657143Y-99901414D01*
X156657143Y-99901414D02*
X156742857Y-99858557D01*
X157814285Y-100287128D02*
X157514285Y-100287128D01*
X157514285Y-100758557D02*
X157514285Y-99858557D01*
X157514285Y-99858557D02*
X157942857Y-99858557D01*
X158585714Y-100287128D02*
X158285714Y-100287128D01*
X158285714Y-100758557D02*
X158285714Y-99858557D01*
X158285714Y-99858557D02*
X158714286Y-99858557D01*
D11*
X154373155Y-112956380D02*
X153196627Y-112956380D01*
X154373155Y-112284078D02*
X153700853Y-112788304D01*
X153196627Y-112284078D02*
X153868928Y-112956380D01*
X154373155Y-111163575D02*
X154373155Y-111835877D01*
X154373155Y-111499726D02*
X153196627Y-111499726D01*
X153196627Y-111499726D02*
X153364702Y-111611776D01*
X153364702Y-111611776D02*
X153476752Y-111723827D01*
X153476752Y-111723827D02*
X153532778Y-111835877D01*
D12*
X139993189Y-102105630D02*
X139993189Y-101445230D01*
X141148889Y-101775430D02*
X139993189Y-101775430D01*
X141148889Y-101059997D02*
X139993189Y-101059997D01*
X139993189Y-101059997D02*
X139993189Y-100619730D01*
X139993189Y-100619730D02*
X140048222Y-100509664D01*
X140048222Y-100509664D02*
X140103256Y-100454630D01*
X140103256Y-100454630D02*
X140213322Y-100399597D01*
X140213322Y-100399597D02*
X140378422Y-100399597D01*
X140378422Y-100399597D02*
X140488489Y-100454630D01*
X140488489Y-100454630D02*
X140543522Y-100509664D01*
X140543522Y-100509664D02*
X140598556Y-100619730D01*
X140598556Y-100619730D02*
X140598556Y-101059997D01*
X141148889Y-99298930D02*
X141148889Y-99959330D01*
X141148889Y-99629130D02*
X139993189Y-99629130D01*
X139993189Y-99629130D02*
X140158289Y-99739197D01*
X140158289Y-99739197D02*
X140268356Y-99849264D01*
X140268356Y-99849264D02*
X140323389Y-99959330D01*
%TO.C,SW1*%
D13*
X155842000Y-98968000D02*
X155842000Y-99476000D01*
X150254000Y-98968000D02*
X155842000Y-98968000D01*
X149746000Y-98968000D02*
X150000000Y-99222000D01*
X144158000Y-98968000D02*
X149746000Y-98968000D01*
X150000000Y-99222000D02*
X150254000Y-98968000D01*
X155842000Y-99476000D02*
X155334000Y-99476000D01*
X155334000Y-99476000D02*
X155334000Y-102524000D01*
X144666000Y-99476000D02*
X144158000Y-99476000D01*
X144158000Y-99476000D02*
X144158000Y-98968000D01*
X152286000Y-99984000D02*
X152286000Y-102016000D01*
X149492000Y-99984000D02*
X149492000Y-102016000D01*
X148984000Y-99984000D02*
X148984000Y-102016000D01*
X148476000Y-99984000D02*
X148476000Y-102016000D01*
X147968000Y-99984000D02*
X147968000Y-102016000D01*
X147714000Y-99984000D02*
X152286000Y-99984000D01*
X152286000Y-102016000D02*
X147714000Y-102016000D01*
X149238000Y-102016000D02*
X149238000Y-99984000D01*
X148730000Y-102016000D02*
X148730000Y-99984000D01*
X148222000Y-102016000D02*
X148222000Y-99984000D01*
X147714000Y-102016000D02*
X147714000Y-99984000D01*
X155842000Y-102524000D02*
X155842000Y-103032000D01*
X155334000Y-102524000D02*
X155842000Y-102524000D01*
X144666000Y-102524000D02*
X144666000Y-99476000D01*
X144158000Y-102524000D02*
X144666000Y-102524000D01*
X150000000Y-102778000D02*
X149746000Y-103032000D01*
X155842000Y-103032000D02*
X150254000Y-103032000D01*
X150254000Y-103032000D02*
X150000000Y-102778000D01*
X149746000Y-103032000D02*
X144158000Y-103032000D01*
X144158000Y-103032000D02*
X144158000Y-102524000D01*
%TO.C,K1*%
X159323300Y-101828600D02*
X159323300Y-108178600D01*
X159323300Y-108178600D02*
X162723300Y-108178600D01*
X162723300Y-101828600D02*
X159323300Y-101828600D01*
X162723300Y-108178600D02*
X162723300Y-101828600D01*
%TO.C,TP1*%
D14*
X134444100Y-102003600D02*
X134444100Y-99003600D01*
X134444100Y-111003600D02*
X134444100Y-102003600D01*
X139444100Y-99003600D02*
X134444100Y-99003600D01*
X139444100Y-99003600D02*
X139444100Y-102003600D01*
X139444100Y-102003600D02*
X134444100Y-102003600D01*
X139444100Y-102003600D02*
X139444100Y-111003600D01*
X139444100Y-111003600D02*
X134444100Y-111003600D01*
%TD*%
%LPC*%
D15*
%TO.C,SW1*%
X147460000Y-101000000D03*
X150000000Y-101000000D03*
X152540000Y-101000000D03*
%TD*%
D16*
%TO.C,K1*%
X160388300Y-107543600D03*
X160388300Y-106273600D03*
X160388300Y-105003600D03*
X160388300Y-103733600D03*
X160388300Y-102463600D03*
X161658300Y-102463600D03*
X161658300Y-103733600D03*
X161658300Y-105003600D03*
X161658300Y-106273600D03*
X161658300Y-107543600D03*
%TD*%
D17*
%TO.C,TP1*%
X136944100Y-100503600D03*
D18*
X136944100Y-103503600D03*
X136944100Y-106503600D03*
X136944100Y-109503600D03*
%TD*%
%LPD*%
M02*
