M48
; DRILL file KiCad 10.0.3 date 2026-07-12T13:22:38
; FORMAT={-:-/ absolute / metric / decimal}
; #@! TF.CreationDate,2026-07-12T13:22:38+09:00
; #@! TF.GenerationSoftware,Kicad,Pcbnew,10.0.3
; #@! TF.FileFunction,MixedPlating,1,2
FMAT,2
METRIC
; #@! TA.AperFunction,Plated,PTH,ViaDrill
T1C0.350
; #@! TA.AperFunction,Plated,PTH,ComponentDrill
T2C0.650
; #@! TA.AperFunction,Plated,PTH,ComponentDrill
T3C0.900
%
G90
G05
T1
X138.1Y-99.55
X140.881Y-106.401
X141.77Y-105.512
X141.77Y-108.052
X141.897Y-103.099
X143.548Y-105.004
X144.437Y-109.449
X144.564Y-100.432
T2
X160.388Y-102.464
X160.388Y-103.734
X160.388Y-105.004
X160.388Y-106.274
X160.388Y-107.544
X161.658Y-102.464
X161.658Y-103.734
X161.658Y-105.004
X161.658Y-106.274
X161.658Y-107.544
T3
X147.46Y-101.0
X150.0Y-101.0
X152.54Y-101.0
M30
