%TF.GenerationSoftware,KiCad,Pcbnew,10.0.3*%
%TF.CreationDate,2026-06-06T15:41:04+09:00*%
%TF.ProjectId,HM_Nightfall-mini-2e_v1,484d5f4e-6967-4687-9466-616c6c2d6d69,rev?*%
%TF.SameCoordinates,Original*%
%TF.FileFunction,Soldermask,Top*%
%TF.FilePolarity,Negative*%
%FSLAX46Y46*%
G04 Gerber Fmt 4.6, Leading zero omitted, Abs format (unit mm)*
G04 Created by KiCad (PCBNEW 10.0.3) date 2026-06-06 15:41:04*
%MOMM*%
%LPD*%
G01*
G04 APERTURE LIST*
G04 Aperture macros list*
%AMRoundRect*
0 Rectangle with rounded corners*
0 $1 Rounding radius*
0 $2 $3 $4 $5 $6 $7 $8 $9 X,Y pos of 4 corners*
0 Add a 4 corners polygon primitive as box body*
4,1,4,$2,$3,$4,$5,$6,$7,$8,$9,$2,$3,0*
0 Add four circle primitives for the rounded corners*
1,1,$1+$1,$2,$3*
1,1,$1+$1,$4,$5*
1,1,$1+$1,$6,$7*
1,1,$1+$1,$8,$9*
0 Add four rect primitives between the rounded corners*
20,1,$1+$1,$2,$3,$4,$5,0*
20,1,$1+$1,$4,$5,$6,$7,0*
20,1,$1+$1,$6,$7,$8,$9,0*
20,1,$1+$1,$8,$9,$2,$3,0*%
%AMFreePoly0*
4,1,25,0.333266,0.742596,0.345389,0.732243,0.732242,0.345389,0.760749,0.289441,0.762000,0.273547,0.762000,-0.273547,0.742596,-0.333266,0.732243,-0.345389,0.345389,-0.732242,0.289441,-0.760749,0.273547,-0.762000,-0.273547,-0.762000,-0.333266,-0.742596,-0.345389,-0.732243,-0.732242,-0.345389,-0.760749,-0.289441,-0.762000,-0.273547,-0.762000,0.273547,-0.742596,0.333266,-0.732243,0.345389,
-0.345389,0.732242,-0.289441,0.760749,-0.273547,0.762000,0.273547,0.762000,0.333266,0.742596,0.333266,0.742596,$1*%
%AMFreePoly1*
4,1,25,0.406913,0.920396,0.419036,0.910042,0.910042,0.419036,0.938549,0.363088,0.939800,0.347194,0.939800,-0.347194,0.920396,-0.406913,0.910042,-0.419036,0.419036,-0.910042,0.363088,-0.938549,0.347194,-0.939800,-0.347194,-0.939800,-0.406913,-0.920396,-0.419036,-0.910042,-0.910042,-0.419036,-0.938549,-0.363088,-0.939800,-0.347194,-0.939800,0.347194,-0.920396,0.406913,-0.910042,0.419036,
-0.419036,0.910042,-0.363088,0.938549,-0.347194,0.939800,0.347194,0.939800,0.406913,0.920396,0.406913,0.920396,$1*%
G04 Aperture macros list end*
%ADD10C,0.000000*%
%ADD11RoundRect,0.101600X-0.299800X-0.299800X0.299800X-0.299800X0.299800X0.299800X-0.299800X0.299800X0*%
%ADD12RoundRect,0.101600X0.350000X0.450000X-0.350000X0.450000X-0.350000X-0.450000X0.350000X-0.450000X0*%
%ADD13RoundRect,0.101600X0.500000X-0.500000X0.500000X0.500000X-0.500000X0.500000X-0.500000X-0.500000X0*%
%ADD14RoundRect,0.101600X0.300000X0.350000X-0.300000X0.350000X-0.300000X-0.350000X0.300000X-0.350000X0*%
%ADD15C,1.303200*%
%ADD16RoundRect,0.101600X0.525000X0.300000X-0.525000X0.300000X-0.525000X-0.300000X0.525000X-0.300000X0*%
%ADD17RoundRect,0.101600X-0.525000X-0.300000X0.525000X-0.300000X0.525000X0.300000X-0.525000X0.300000X0*%
%ADD18RoundRect,0.101600X-0.300000X-0.350000X0.300000X-0.350000X0.300000X0.350000X-0.300000X0.350000X0*%
%ADD19RoundRect,0.101600X-0.350000X0.300000X-0.350000X-0.300000X0.350000X-0.300000X0.350000X0.300000X0*%
%ADD20RoundRect,0.101600X0.400000X0.400000X-0.400000X0.400000X-0.400000X-0.400000X0.400000X-0.400000X0*%
%ADD21RoundRect,0.736600X-0.000010X-0.000010X0.000010X-0.000010X0.000010X0.000010X-0.000010X0.000010X0*%
%ADD22RoundRect,0.101600X0.450000X-0.350000X0.450000X0.350000X-0.450000X0.350000X-0.450000X-0.350000X0*%
%ADD23RoundRect,0.101600X0.350000X-0.300000X0.350000X0.300000X-0.350000X0.300000X-0.350000X-0.300000X0*%
%ADD24RoundRect,0.101600X0.035355X-0.459619X0.459619X-0.035355X-0.035355X0.459619X-0.459619X0.035355X0*%
%ADD25FreePoly0,305.000000*%
%ADD26RoundRect,0.101600X-0.700000X0.500000X-0.700000X-0.500000X0.700000X-0.500000X0.700000X0.500000X0*%
%ADD27RoundRect,0.101600X-0.508000X-0.177800X0.508000X-0.177800X0.508000X0.177800X-0.508000X0.177800X0*%
%ADD28RoundRect,0.101600X-0.508000X-0.152400X0.508000X-0.152400X0.508000X0.152400X-0.508000X0.152400X0*%
%ADD29RoundRect,0.101600X-0.450000X0.350000X-0.450000X-0.350000X0.450000X-0.350000X0.450000X0.350000X0*%
%ADD30RoundRect,0.101600X0.177800X-0.508000X0.177800X0.508000X-0.177800X0.508000X-0.177800X-0.508000X0*%
%ADD31RoundRect,0.101600X0.152400X-0.508000X0.152400X0.508000X-0.152400X0.508000X-0.152400X-0.508000X0*%
%ADD32RoundRect,0.065400X0.456200X0.196200X-0.456200X0.196200X-0.456200X-0.196200X0.456200X-0.196200X0*%
%ADD33FreePoly0,125.000000*%
%ADD34RoundRect,0.101600X0.400000X-0.400000X0.400000X0.400000X-0.400000X0.400000X-0.400000X-0.400000X0*%
%ADD35FreePoly0,353.000000*%
%ADD36RoundRect,0.101600X-0.350000X-0.450000X0.350000X-0.450000X0.350000X0.450000X-0.350000X0.450000X0*%
%ADD37FreePoly0,187.000000*%
%ADD38RoundRect,0.101600X0.070711X-0.565685X0.565685X-0.070711X-0.070711X0.565685X-0.565685X0.070711X0*%
%ADD39RoundRect,0.101600X-0.230941X0.411112X-0.411112X0.230941X0.230941X-0.411112X0.411112X-0.230941X0*%
%ADD40RoundRect,0.101600X0.411112X0.230941X0.230941X0.411112X-0.411112X-0.230941X-0.230941X-0.411112X0*%
%ADD41RoundRect,0.101600X-4.023155X0.000000X0.000000X-4.023155X4.023155X0.000000X0.000000X4.023155X0*%
%ADD42FreePoly0,7.000000*%
%ADD43FreePoly1,0.000000*%
%ADD44RoundRect,0.101600X-0.400000X0.400000X-0.400000X-0.400000X0.400000X-0.400000X0.400000X0.400000X0*%
%ADD45RoundRect,0.101600X-0.650000X-0.100000X0.650000X-0.100000X0.650000X0.100000X-0.650000X0.100000X0*%
%ADD46RoundRect,0.101600X0.125000X-0.400000X0.125000X0.400000X-0.125000X0.400000X-0.125000X-0.400000X0*%
%ADD47RoundRect,0.101600X0.650000X0.100000X-0.650000X0.100000X-0.650000X-0.100000X0.650000X-0.100000X0*%
%ADD48RoundRect,0.101600X-0.125000X0.400000X-0.125000X-0.400000X0.125000X-0.400000X0.125000X0.400000X0*%
%ADD49RoundRect,0.101600X-0.300000X0.300000X-0.300000X-0.300000X0.300000X-0.300000X0.300000X0.300000X0*%
%ADD50RoundRect,0.101600X0.450000X0.500000X-0.450000X0.500000X-0.450000X-0.500000X0.450000X-0.500000X0*%
%ADD51FreePoly0,55.000000*%
%ADD52FreePoly0,235.000000*%
%ADD53FreePoly0,173.000000*%
%ADD54C,0.900000*%
%ADD55RoundRect,0.101600X-0.350000X-0.750000X0.350000X-0.750000X0.350000X0.750000X-0.350000X0.750000X0*%
%ADD56RoundRect,0.101600X-0.500000X-0.400000X0.500000X-0.400000X0.500000X0.400000X-0.500000X0.400000X0*%
G04 APERTURE END LIST*
D10*
%TO.C,U4*%
G36*
X147696098Y-104478598D02*
G01*
X146986098Y-104478598D01*
X146986098Y-104028598D01*
X147696098Y-104028598D01*
X147696098Y-104478598D01*
G37*
G36*
X147696098Y-104978598D02*
G01*
X146986098Y-104978598D01*
X146986098Y-104528598D01*
X147696098Y-104528598D01*
X147696098Y-104978598D01*
G37*
G36*
X147696098Y-105478598D02*
G01*
X146986098Y-105478598D01*
X146986098Y-105028598D01*
X147696098Y-105028598D01*
X147696098Y-105478598D01*
G37*
G36*
X147696098Y-105978598D02*
G01*
X146986098Y-105978598D01*
X146986098Y-105528598D01*
X147696098Y-105528598D01*
X147696098Y-105978598D01*
G37*
G36*
X148226098Y-104448598D02*
G01*
X147776098Y-104448598D01*
X147776098Y-103738598D01*
X148226098Y-103738598D01*
X148226098Y-104448598D01*
G37*
G36*
X148226098Y-106268598D02*
G01*
X147776098Y-106268598D01*
X147776098Y-105558598D01*
X148226098Y-105558598D01*
X148226098Y-106268598D01*
G37*
G36*
X148726098Y-104448598D02*
G01*
X148276098Y-104448598D01*
X148276098Y-103738598D01*
X148726098Y-103738598D01*
X148726098Y-104448598D01*
G37*
G36*
X148726098Y-106268598D02*
G01*
X148276098Y-106268598D01*
X148276098Y-105558598D01*
X148726098Y-105558598D01*
X148726098Y-106268598D01*
G37*
G36*
X149226098Y-104448598D02*
G01*
X148776098Y-104448598D01*
X148776098Y-103738598D01*
X149226098Y-103738598D01*
X149226098Y-104448598D01*
G37*
G36*
X149226098Y-106268598D02*
G01*
X148776098Y-106268598D01*
X148776098Y-105558598D01*
X149226098Y-105558598D01*
X149226098Y-106268598D01*
G37*
G36*
X150016098Y-104478598D02*
G01*
X149306098Y-104478598D01*
X149306098Y-104028598D01*
X150016098Y-104028598D01*
X150016098Y-104478598D01*
G37*
G36*
X150016098Y-104978598D02*
G01*
X149306098Y-104978598D01*
X149306098Y-104528598D01*
X150016098Y-104528598D01*
X150016098Y-104978598D01*
G37*
G36*
X150016098Y-105478598D02*
G01*
X149306098Y-105478598D01*
X149306098Y-105028598D01*
X150016098Y-105028598D01*
X150016098Y-105478598D01*
G37*
G36*
X150016098Y-105978598D02*
G01*
X149306098Y-105978598D01*
X149306098Y-105528598D01*
X150016098Y-105528598D01*
X150016098Y-105978598D01*
G37*
%TD*%
D11*
%TO.C,EC_R2*%
X159677098Y-100939598D03*
%TD*%
D12*
%TO.C,C_MCU-M0*%
X145976098Y-100812598D03*
X144676098Y-100812598D03*
%TD*%
D13*
%TO.C,SPK1*%
X155773098Y-115368598D03*
X150373098Y-115368598D03*
X155773098Y-118768598D03*
%TD*%
D14*
%TO.C,R1FR0*%
X161955098Y-86334598D03*
X160955098Y-86334598D03*
%TD*%
D15*
%TO.C,K1*%
X165900098Y-119100598D03*
X165900098Y-120370598D03*
X165900098Y-121640598D03*
X165900098Y-122910598D03*
X165900098Y-124180598D03*
X164630098Y-124180598D03*
X164630098Y-122910598D03*
X164630098Y-121640598D03*
X164630098Y-120370598D03*
X164630098Y-119100598D03*
%TD*%
D16*
%TO.C,U1*%
X133545098Y-114081598D03*
X133545098Y-112181598D03*
D17*
X130945098Y-113131598D03*
%TD*%
D18*
%TO.C,R8*%
X154097098Y-110591598D03*
X155097098Y-110591598D03*
%TD*%
D19*
%TO.C,R7*%
X158280098Y-103614598D03*
X158280098Y-104614598D03*
%TD*%
D11*
%TO.C,EC_R3*%
X159677098Y-102717598D03*
%TD*%
D20*
%TO.C,LED3*%
X134277098Y-135749598D03*
X134277098Y-137249598D03*
%TD*%
D18*
%TO.C,R25*%
X148001098Y-117322598D03*
X149001098Y-117322598D03*
%TD*%
D11*
%TO.C,EC_L4*%
X137325098Y-101828598D03*
%TD*%
D21*
%TO.C,TP3*%
X144691098Y-116941598D03*
%TD*%
D22*
%TO.C,C1*%
X147993098Y-109209598D03*
X147993098Y-107909598D03*
%TD*%
D23*
%TO.C,R27*%
X163233098Y-134078598D03*
X163233098Y-133078598D03*
%TD*%
D18*
%TO.C,R6*%
X147874098Y-100812598D03*
X148874098Y-100812598D03*
%TD*%
D24*
%TO.C,R3*%
X144845545Y-87196151D03*
X145552651Y-86489045D03*
%TD*%
D23*
%TO.C,R2R0*%
X160820098Y-84548598D03*
X160820098Y-83548598D03*
%TD*%
D25*
%TO.C,IR_LED_R0*%
X149804656Y-75261275D03*
X151261540Y-77341921D03*
%TD*%
D11*
%TO.C,EC_L2*%
X137325098Y-100939598D03*
%TD*%
%TO.C,EC_R1*%
X159677098Y-100050598D03*
%TD*%
D26*
%TO.C,Q2*%
X131828098Y-116372598D03*
X131828098Y-118272598D03*
X134440098Y-117322598D03*
%TD*%
D27*
%TO.C,UBUZ0*%
X153784298Y-112496598D03*
X153784298Y-113512598D03*
D28*
X155409898Y-113004598D03*
%TD*%
D23*
%TO.C,R2L0*%
X136309098Y-84548598D03*
X136309098Y-83548598D03*
%TD*%
D18*
%TO.C,R0*%
X146096098Y-111607598D03*
X147096098Y-111607598D03*
%TD*%
D29*
%TO.C,C14*%
X129578098Y-114005598D03*
X129578098Y-115305598D03*
%TD*%
D19*
%TO.C,R1*%
X157010098Y-103614598D03*
X157010098Y-104614598D03*
%TD*%
D30*
%TO.C,UR0*%
X155613098Y-84861398D03*
X156629098Y-84861398D03*
D31*
X156121098Y-83235798D03*
%TD*%
D32*
%TO.C,U6*%
X155126098Y-105978598D03*
X155126098Y-105328598D03*
X155126098Y-104678598D03*
X155126098Y-104028598D03*
X152036098Y-104028598D03*
X152036098Y-104678598D03*
X152036098Y-105328598D03*
X152036098Y-105978598D03*
%TD*%
D14*
%TO.C,R4R0*%
X156621098Y-86334598D03*
X155621098Y-86334598D03*
%TD*%
D33*
%TO.C,PT_R0*%
X153674540Y-80643921D03*
X152217656Y-78563275D03*
%TD*%
D11*
%TO.C,EC_R4*%
X159677098Y-101828598D03*
%TD*%
D34*
%TO.C,LED1*%
X149251098Y-71221598D03*
X147751098Y-71221598D03*
%TD*%
D30*
%TO.C,UL0*%
X140627098Y-84861398D03*
X141643098Y-84861398D03*
D31*
X141135098Y-83235798D03*
%TD*%
D35*
%TO.C,PT_FR0*%
X159305564Y-95831824D03*
X161826632Y-96141372D03*
%TD*%
D29*
%TO.C,C8*%
X138214098Y-118196598D03*
X138214098Y-119496598D03*
%TD*%
D21*
%TO.C,TP2*%
X144691098Y-123545598D03*
%TD*%
D36*
%TO.C,C_MCU-C0*%
X144676098Y-99669598D03*
X145976098Y-99669598D03*
%TD*%
D21*
%TO.C,TP4*%
X144564098Y-119100598D03*
%TD*%
D37*
%TO.C,PT_FL0*%
X137696632Y-95831824D03*
X135175564Y-96141372D03*
%TD*%
D38*
%TO.C,C21*%
X142453479Y-87810217D03*
X143372717Y-86890979D03*
%TD*%
D39*
%TO.C,U5*%
X147588354Y-88263766D03*
X147234800Y-88617320D03*
X146881247Y-88970873D03*
X146527694Y-89324427D03*
X146174140Y-89677980D03*
X145820587Y-90031533D03*
X145467033Y-90385087D03*
X145113480Y-90738640D03*
X144759927Y-91092194D03*
X144406373Y-91445747D03*
X144052820Y-91799300D03*
X143699266Y-92152854D03*
D40*
X143699266Y-93216342D03*
X144052820Y-93569896D03*
X144406373Y-93923449D03*
X144759927Y-94277002D03*
X145113480Y-94630556D03*
X145467033Y-94984109D03*
X145820587Y-95337663D03*
X146174140Y-95691216D03*
X146527694Y-96044769D03*
X146881247Y-96398323D03*
X147234800Y-96751876D03*
X147588354Y-97105430D03*
D39*
X148651842Y-97105430D03*
X149005396Y-96751876D03*
X149358949Y-96398323D03*
X149712502Y-96044769D03*
X150066056Y-95691216D03*
X150419609Y-95337663D03*
X150773163Y-94984109D03*
X151126716Y-94630556D03*
X151480269Y-94277002D03*
X151833823Y-93923449D03*
X152187376Y-93569896D03*
X152540930Y-93216342D03*
D40*
X152540930Y-92152854D03*
X152187376Y-91799300D03*
X151833823Y-91445747D03*
X151480269Y-91092194D03*
X151126716Y-90738640D03*
X150773163Y-90385087D03*
X150419609Y-90031533D03*
X150066056Y-89677980D03*
X149712502Y-89324427D03*
X149358949Y-88970873D03*
X149005396Y-88617320D03*
X148651842Y-88263766D03*
D41*
X148120098Y-92684598D03*
%TD*%
D14*
%TO.C,R4L0*%
X141635098Y-86334598D03*
X140635098Y-86334598D03*
%TD*%
D42*
%TO.C,IR_LED_FL0*%
X131111564Y-96649372D03*
X133632632Y-96339824D03*
%TD*%
D43*
%TO.C,P1*%
X134007098Y-122021598D03*
X132007098Y-122021598D03*
%TD*%
D44*
%TO.C,P-LED0*%
X147751098Y-118973598D03*
X149251098Y-118973598D03*
%TD*%
D11*
%TO.C,EC_L1*%
X137325098Y-100050598D03*
%TD*%
D45*
%TO.C,U2*%
X140693098Y-116949473D03*
X140743098Y-117449598D03*
X140743098Y-117949723D03*
D46*
X140892911Y-118849598D03*
X141393036Y-118849598D03*
X141893160Y-118849598D03*
X142393285Y-118849598D03*
D47*
X142543098Y-117949723D03*
X142543098Y-117449598D03*
X142543098Y-116949473D03*
D48*
X142393285Y-116049598D03*
X141893160Y-116049598D03*
X141393036Y-116049598D03*
X140892911Y-116049598D03*
%TD*%
D11*
%TO.C,EC_L3*%
X137325098Y-102717598D03*
%TD*%
D38*
%TO.C,C_MCU0*%
X142834479Y-89207217D03*
X143753717Y-88287979D03*
%TD*%
D29*
%TO.C,C15*%
X134912098Y-112481598D03*
X134912098Y-113781598D03*
%TD*%
D30*
%TO.C,UFL0*%
X137960098Y-84861398D03*
X138976098Y-84861398D03*
D31*
X138468098Y-83235798D03*
%TD*%
D23*
%TO.C,R2FL0*%
X134912098Y-84548598D03*
X134912098Y-83548598D03*
%TD*%
D29*
%TO.C,C_MCU2*%
X155232098Y-93304598D03*
X155232098Y-94604598D03*
%TD*%
D22*
%TO.C,C7*%
X136944098Y-122671598D03*
X136944098Y-121371598D03*
%TD*%
D49*
%TO.C,D3*%
X150370098Y-112354598D03*
X150370098Y-113654598D03*
X152220098Y-113004598D03*
%TD*%
D29*
%TO.C,C3*%
X146723098Y-107909598D03*
X146723098Y-109209598D03*
%TD*%
D20*
%TO.C,LED2*%
X162725098Y-135622598D03*
X162725098Y-137122598D03*
%TD*%
D29*
%TO.C,C9*%
X136944098Y-118196598D03*
X136944098Y-119496598D03*
%TD*%
D21*
%TO.C,TP1*%
X144691098Y-121259598D03*
%TD*%
D36*
%TO.C,C_MCU3*%
X148105098Y-85572598D03*
X149405098Y-85572598D03*
%TD*%
D30*
%TO.C,UFR0*%
X158153098Y-84861398D03*
X159169098Y-84861398D03*
D31*
X158661098Y-83235798D03*
%TD*%
D23*
%TO.C,R2FR0*%
X162217098Y-84548598D03*
X162217098Y-83548598D03*
%TD*%
D18*
%TO.C,R1FL0*%
X135047098Y-86334598D03*
X136047098Y-86334598D03*
%TD*%
D14*
%TO.C,R4*%
X139222098Y-116433598D03*
X138222098Y-116433598D03*
%TD*%
D19*
%TO.C,R1R0*%
X149263098Y-78976598D03*
X149263098Y-79976598D03*
%TD*%
%TO.C,R1L0*%
X147739098Y-78976598D03*
X147739098Y-79976598D03*
%TD*%
D14*
%TO.C,R4FR0*%
X159161098Y-86334598D03*
X158161098Y-86334598D03*
%TD*%
D45*
%TO.C,U3*%
X140693098Y-122537473D03*
X140743098Y-123037598D03*
X140743098Y-123537723D03*
D46*
X140892911Y-124437598D03*
X141393036Y-124437598D03*
X141893160Y-124437598D03*
X142393285Y-124437598D03*
D47*
X142543098Y-123537723D03*
X142543098Y-123037598D03*
X142543098Y-122537473D03*
D48*
X142393285Y-121637598D03*
X141893160Y-121637598D03*
X141393036Y-121637598D03*
X140892911Y-121637598D03*
%TD*%
D50*
%TO.C,RESET0*%
X160838098Y-137350598D03*
X156738098Y-137350598D03*
X160838098Y-138950598D03*
X156738098Y-138950598D03*
%TD*%
D23*
%TO.C,R28*%
X133769098Y-134205598D03*
X133769098Y-133205598D03*
%TD*%
D29*
%TO.C,C2*%
X149771098Y-107909598D03*
X149771098Y-109209598D03*
%TD*%
D22*
%TO.C,C6*%
X138214098Y-122671598D03*
X138214098Y-121371598D03*
%TD*%
D51*
%TO.C,PT_L0*%
X143327656Y-80643921D03*
X144784540Y-78563275D03*
%TD*%
D36*
%TO.C,C_MCU1*%
X147724098Y-99669598D03*
X149024098Y-99669598D03*
%TD*%
D50*
%TO.C,MODE0*%
X140264098Y-137350598D03*
X136164098Y-137350598D03*
X140264098Y-138950598D03*
X136164098Y-138950598D03*
%TD*%
D22*
%TO.C,C5*%
X152057098Y-109590598D03*
X152057098Y-108290598D03*
%TD*%
D18*
%TO.C,R5*%
X138222098Y-115163598D03*
X139222098Y-115163598D03*
%TD*%
D52*
%TO.C,IR_LED_L0*%
X147197540Y-75261275D03*
X145740656Y-77341921D03*
%TD*%
D14*
%TO.C,R26*%
X149001098Y-72618598D03*
X148001098Y-72618598D03*
%TD*%
D53*
%TO.C,IR_LED_FR0*%
X165890632Y-96649372D03*
X163369564Y-96339824D03*
%TD*%
D54*
%TO.C,POWER0*%
X149668098Y-123037598D03*
X152668098Y-123037598D03*
D55*
X148918098Y-121287598D03*
X151918098Y-121287598D03*
X153418098Y-121287598D03*
D56*
X147518098Y-121987598D03*
X147518098Y-124087598D03*
X154818098Y-124087598D03*
X154818098Y-121987598D03*
%TD*%
D19*
%TO.C,R12*%
X130086098Y-116949598D03*
X130086098Y-117949598D03*
%TD*%
D14*
%TO.C,R4FL0*%
X138968098Y-86334598D03*
X137968098Y-86334598D03*
%TD*%
D18*
%TO.C,R2*%
X151176098Y-85572598D03*
X152176098Y-85572598D03*
%TD*%
M02*
