%TF.GenerationSoftware,KiCad,Pcbnew,10.0.3*%
%TF.CreationDate,2026-06-06T15:41:04+09:00*%
%TF.ProjectId,HM_Nightfall-mini-2e_v1,484d5f4e-6967-4687-9466-616c6c2d6d69,rev?*%
%TF.SameCoordinates,Original*%
%TF.FileFunction,Copper,L2,Bot*%
%TF.FilePolarity,Positive*%
%FSLAX46Y46*%
G04 Gerber Fmt 4.6, Leading zero omitted, Abs format (unit mm)*
G04 Created by KiCad (PCBNEW 10.0.3) date 2026-06-06 15:41:04*
%MOMM*%
%LPD*%
G01*
G04 APERTURE LIST*
G04 Aperture macros list*
%AMOutline5P*
0 Free polygon, 5 corners , with rotation*
0 The origin of the aperture is its center*
0 number of corners: always 5*
0 $1 to $10 corner X, Y*
0 $11 Rotation angle, in degrees counterclockwise*
0 create outline with 5 corners*
4,1,5,$1,$2,$3,$4,$5,$6,$7,$8,$9,$10,$1,$2,$11*%
%AMOutline6P*
0 Free polygon, 6 corners , with rotation*
0 The origin of the aperture is its center*
0 number of corners: always 6*
0 $1 to $12 corner X, Y*
0 $13 Rotation angle, in degrees counterclockwise*
0 create outline with 6 corners*
4,1,6,$1,$2,$3,$4,$5,$6,$7,$8,$9,$10,$11,$12,$1,$2,$13*%
%AMOutline7P*
0 Free polygon, 7 corners , with rotation*
0 The origin of the aperture is its center*
0 number of corners: always 7*
0 $1 to $14 corner X, Y*
0 $15 Rotation angle, in degrees counterclockwise*
0 create outline with 7 corners*
4,1,7,$1,$2,$3,$4,$5,$6,$7,$8,$9,$10,$11,$12,$13,$14,$1,$2,$15*%
%AMOutline8P*
0 Free polygon, 8 corners , with rotation*
0 The origin of the aperture is its center*
0 number of corners: always 8*
0 $1 to $16 corner X, Y*
0 $17 Rotation angle, in degrees counterclockwise*
0 create outline with 8 corners*
4,1,8,$1,$2,$3,$4,$5,$6,$7,$8,$9,$10,$11,$12,$13,$14,$15,$16,$1,$2,$17*%
G04 Aperture macros list end*
%TA.AperFunction,ComponentPad*%
%ADD10C,1.100000*%
%TD*%
%TA.AperFunction,ComponentPad*%
%ADD11Outline8P,-0.660400X0.273547X-0.273547X0.660400X0.273547X0.660400X0.660400X0.273547X0.660400X-0.273547X0.273547X-0.660400X-0.273547X-0.660400X-0.660400X-0.273547X305.000000*%
%TD*%
%TA.AperFunction,ComponentPad*%
%ADD12Outline8P,-0.660400X0.273547X-0.273547X0.660400X0.273547X0.660400X0.660400X0.273547X0.660400X-0.273547X0.273547X-0.660400X-0.273547X-0.660400X-0.660400X-0.273547X125.000000*%
%TD*%
%TA.AperFunction,ComponentPad*%
%ADD13Outline8P,-0.660400X0.273547X-0.273547X0.660400X0.273547X0.660400X0.660400X0.273547X0.660400X-0.273547X0.273547X-0.660400X-0.273547X-0.660400X-0.660400X-0.273547X353.000000*%
%TD*%
%TA.AperFunction,ComponentPad*%
%ADD14Outline8P,-0.660400X0.273547X-0.273547X0.660400X0.273547X0.660400X0.660400X0.273547X0.660400X-0.273547X0.273547X-0.660400X-0.273547X-0.660400X-0.660400X-0.273547X187.000000*%
%TD*%
%TA.AperFunction,ComponentPad*%
%ADD15Outline8P,-0.660400X0.273547X-0.273547X0.660400X0.273547X0.660400X0.660400X0.273547X0.660400X-0.273547X0.273547X-0.660400X-0.273547X-0.660400X-0.660400X-0.273547X7.000000*%
%TD*%
%TA.AperFunction,ComponentPad*%
%ADD16Outline8P,-0.838200X0.347194X-0.347194X0.838200X0.347194X0.838200X0.838200X0.347194X0.838200X-0.347194X0.347194X-0.838200X-0.347194X-0.838200X-0.838200X-0.347194X0.000000*%
%TD*%
%TA.AperFunction,ComponentPad*%
%ADD17Outline8P,-0.660400X0.273547X-0.273547X0.660400X0.273547X0.660400X0.660400X0.273547X0.660400X-0.273547X0.273547X-0.660400X-0.273547X-0.660400X-0.660400X-0.273547X55.000000*%
%TD*%
%TA.AperFunction,ComponentPad*%
%ADD18Outline8P,-0.660400X0.273547X-0.273547X0.660400X0.273547X0.660400X0.660400X0.273547X0.660400X-0.273547X0.273547X-0.660400X-0.273547X-0.660400X-0.660400X-0.273547X235.000000*%
%TD*%
%TA.AperFunction,ComponentPad*%
%ADD19Outline8P,-0.660400X0.273547X-0.273547X0.660400X0.273547X0.660400X0.660400X0.273547X0.660400X-0.273547X0.273547X-0.660400X-0.273547X-0.660400X-0.660400X-0.273547X173.000000*%
%TD*%
%TA.AperFunction,ViaPad*%
%ADD20C,0.706400*%
%TD*%
%TA.AperFunction,ViaPad*%
%ADD21C,0.756400*%
%TD*%
%TA.AperFunction,Conductor*%
%ADD22C,0.254000*%
%TD*%
%TA.AperFunction,Conductor*%
%ADD23C,0.508000*%
%TD*%
%TA.AperFunction,Conductor*%
%ADD24C,0.304800*%
%TD*%
%TA.AperFunction,Conductor*%
%ADD25C,0.406400*%
%TD*%
G04 APERTURE END LIST*
D10*
%TO.P,K1,1*%
%TO.N,+5V*%
X165900098Y-119100598D03*
%TO.P,K1,2*%
%TO.N,GND*%
X165900098Y-120370598D03*
%TO.P,K1,3*%
%TO.N,SWDIO*%
X165900098Y-121640598D03*
%TO.P,K1,4*%
%TO.N,SWCLK*%
X165900098Y-122910598D03*
%TO.P,K1,5*%
%TO.N,NRST*%
X165900098Y-124180598D03*
%TO.P,K1,6*%
%TO.N,+3V3*%
X164630098Y-124180598D03*
%TO.P,K1,7*%
%TO.N,BOOT0*%
X164630098Y-122910598D03*
%TO.P,K1,8*%
%TO.N,USART1_TX*%
X164630098Y-121640598D03*
%TO.P,K1,9*%
%TO.N,USART1_RX*%
X164630098Y-120370598D03*
%TO.P,K1,10*%
%TO.N,SWO*%
X164630098Y-119100598D03*
%TD*%
D11*
%TO.P,IR_LED_R0,A*%
%TO.N,N$30*%
X149804656Y-75261275D03*
%TO.P,IR_LED_R0,K*%
%TO.N,N$29*%
X151261540Y-77341921D03*
%TD*%
D12*
%TO.P,PT_R0,A*%
%TO.N,+3V3*%
X153674540Y-80643921D03*
%TO.P,PT_R0,K*%
%TO.N,SENSOR_R*%
X152217656Y-78563275D03*
%TD*%
D13*
%TO.P,PT_FR0,A*%
%TO.N,+3V3*%
X159305564Y-95831824D03*
%TO.P,PT_FR0,K*%
%TO.N,SENSOR_FR*%
X161826632Y-96141372D03*
%TD*%
D14*
%TO.P,PT_FL0,A*%
%TO.N,+3V3*%
X137696632Y-95831824D03*
%TO.P,PT_FL0,K*%
%TO.N,SENSOR_FL*%
X135175564Y-96141372D03*
%TD*%
D15*
%TO.P,IR_LED_FL0,A*%
%TO.N,N$8*%
X131111564Y-96649372D03*
%TO.P,IR_LED_FL0,K*%
%TO.N,N$2*%
X133632632Y-96339824D03*
%TD*%
D16*
%TO.P,P1,1*%
%TO.N,GND2*%
X134007098Y-122021598D03*
%TO.P,P1,2*%
%TO.N,N$7*%
X132007098Y-122021598D03*
%TD*%
D17*
%TO.P,PT_L0,A*%
%TO.N,+3V3*%
X143327656Y-80643921D03*
%TO.P,PT_L0,K*%
%TO.N,SENSOR_L*%
X144784540Y-78563275D03*
%TD*%
D18*
%TO.P,IR_LED_L0,A*%
%TO.N,N$16*%
X147197540Y-75261275D03*
%TO.P,IR_LED_L0,K*%
%TO.N,N$10*%
X145740656Y-77341921D03*
%TD*%
D19*
%TO.P,IR_LED_FR0,A*%
%TO.N,N$28*%
X165890632Y-96649372D03*
%TO.P,IR_LED_FR0,K*%
%TO.N,N$18*%
X163369564Y-96339824D03*
%TD*%
D20*
%TO.N,GND*%
X152565098Y-82524598D03*
X154851098Y-83540598D03*
D21*
X155486098Y-112115598D03*
D20*
X143675098Y-89890598D03*
X145453098Y-109194598D03*
X145453098Y-105257598D03*
X144945098Y-82651598D03*
X147231098Y-106781598D03*
D21*
X155740098Y-95605598D03*
D20*
X156629098Y-96621598D03*
X150279098Y-92811598D03*
X134150098Y-87096598D03*
X147993098Y-95605598D03*
D21*
X160334698Y-97510598D03*
X148247098Y-111353598D03*
D20*
X154978098Y-106908598D03*
X153200098Y-86969598D03*
X145453098Y-106908598D03*
D21*
X151041098Y-105257598D03*
D20*
X156248098Y-89255598D03*
X150406098Y-84302598D03*
D21*
X149771098Y-111353598D03*
X149263098Y-90906598D03*
D20*
X149136098Y-86969598D03*
X149009098Y-98653598D03*
X137325098Y-82524598D03*
X147739098Y-82905598D03*
X150914098Y-108940598D03*
D21*
X154132104Y-104579592D03*
D20*
X155105098Y-109575598D03*
X161455098Y-85445598D03*
X148755098Y-106908598D03*
X153073098Y-106654598D03*
X145976098Y-98526598D03*
D21*
X146977098Y-91033598D03*
D20*
X149898098Y-103352598D03*
X146850098Y-93192598D03*
X150914098Y-106781598D03*
X157391098Y-87223598D03*
X145961098Y-101828598D03*
X162725098Y-82524598D03*
X134277098Y-82524598D03*
X159677098Y-82524598D03*
X154851098Y-116939198D03*
D21*
X138998698Y-101066598D03*
D20*
X157391098Y-82778598D03*
D21*
X143040098Y-82397598D03*
D20*
X156375098Y-93954598D03*
X140119098Y-82524598D03*
D21*
X149136098Y-94716598D03*
D20*
X139865098Y-85572598D03*
X139865098Y-87096598D03*
X162725098Y-87096598D03*
X142278098Y-83286598D03*
X156121098Y-87604598D03*
X147612098Y-98399598D03*
%TO.N,+3V3*%
X144183098Y-84810598D03*
X157899098Y-102082598D03*
X145580098Y-107924598D03*
X155867098Y-116941598D03*
X153454098Y-93827598D03*
X146850098Y-100812598D03*
X136690098Y-111607598D03*
X148120098Y-84556598D03*
X164630098Y-125829198D03*
X137960098Y-99288598D03*
D21*
X148501098Y-80643923D03*
X160947098Y-87350598D03*
D20*
X142151098Y-89890598D03*
X159677098Y-99034598D03*
D21*
X137696633Y-89001598D03*
D20*
%TO.N,+5V*%
X139103098Y-122021598D03*
X157645098Y-121767598D03*
D21*
%TO.N,N$28*%
X162956498Y-89382598D03*
%TO.N,SWDIO*%
X165265098Y-117957598D03*
X162471098Y-119608598D03*
D20*
X155359098Y-101447598D03*
%TO.N,SWCLK*%
X155991698Y-100558598D03*
D21*
X164503098Y-117299998D03*
D20*
X153708098Y-92430598D03*
D21*
X161455098Y-118592598D03*
D20*
X153835098Y-94716598D03*
D21*
%TO.N,NRST*%
X141770098Y-88493598D03*
%TO.N,BOOT0*%
X160207698Y-114020598D03*
X158788098Y-99923598D03*
X152565098Y-88366598D03*
X160312098Y-107289598D03*
X159804098Y-103547998D03*
X151168098Y-86842598D03*
D20*
%TO.N,USART1_TX*%
X153454098Y-101320598D03*
%TO.N,USART1_RX*%
X154089098Y-100685598D03*
%TO.N,SWO*%
X156629098Y-101447598D03*
X154724098Y-95605598D03*
X154724098Y-92303598D03*
%TO.N,GND2*%
X145707098Y-112750598D03*
X148249917Y-120113779D03*
X133261098Y-120243598D03*
X139230098Y-112496598D03*
X132372098Y-123672598D03*
D21*
X131483098Y-115163598D03*
D20*
X143421098Y-124434598D03*
X130594098Y-119989598D03*
X137071098Y-124307598D03*
X135801098Y-118211598D03*
X136817098Y-114020598D03*
D21*
X135108598Y-138081098D03*
D20*
X137833098Y-111734598D03*
X145707098Y-118084598D03*
D21*
X130975098Y-125577598D03*
D20*
X138976098Y-120497598D03*
X133007098Y-117322598D03*
X138468098Y-117322598D03*
X129832098Y-111861598D03*
X134912098Y-115417598D03*
X145707098Y-122402598D03*
X132372098Y-113004598D03*
X143167098Y-119989598D03*
X145707098Y-114401598D03*
%TO.N,FRAM_CS*%
X152819098Y-101955598D03*
X156248098Y-105765598D03*
D21*
%TO.N,EC_R_B*%
X158788098Y-102486198D03*
X158788098Y-100939598D03*
D20*
%TO.N,LED_2*%
X160439098Y-119735598D03*
X154721698Y-100050598D03*
%TO.N,PUSH_IN_1*%
X145326098Y-104241598D03*
X147231098Y-121005598D03*
X144437098Y-86080598D03*
X133642098Y-126466598D03*
D21*
%TO.N,SENSOR_R*%
X133134098Y-89636598D03*
X156629098Y-78587598D03*
D20*
%TO.N,N$11*%
X148628098Y-124307598D03*
X129832098Y-119227598D03*
D21*
%TO.N,SENSOR_L*%
X136055098Y-82651598D03*
X136436098Y-97002598D03*
%TO.N,IR_R*%
X152057098Y-90271598D03*
X155105098Y-87223598D03*
D20*
%TO.N,SPI2_MISO*%
X151295098Y-100685598D03*
X147612098Y-103225598D03*
%TO.N,SPI2_MOSI*%
X148850498Y-104904198D03*
X152184098Y-101193598D03*
X152057098Y-103225598D03*
%TO.N,SPI2_SCK*%
X148247098Y-102590598D03*
X149900916Y-101577417D03*
D21*
%TO.N,SENSOR_FR*%
X134023098Y-88874598D03*
X157391098Y-77825598D03*
%TO.N,SENSOR_FL*%
X135293098Y-81889598D03*
%TO.N,IR_FL*%
X138849098Y-87858598D03*
X142659098Y-84937598D03*
D20*
%TO.N,LED_3*%
X144434698Y-104114598D03*
X144818098Y-88620598D03*
%TO.N,MOTOR_L_DIR*%
X138849098Y-124053598D03*
X140500098Y-111988598D03*
X141010917Y-102085417D03*
X139992098Y-99161598D03*
%TO.N,MOTOR_L_PWM*%
X141899917Y-120621779D03*
X141645498Y-101450836D03*
X140629498Y-99923598D03*
X141516098Y-111988598D03*
%TO.N,MOTOR_R_DIR*%
X140260311Y-115163598D03*
X141391917Y-119865416D03*
%TO.N,MOTOR_STBY*%
X140500098Y-119862598D03*
X139738098Y-124053598D03*
X141135098Y-113893598D03*
D21*
%TO.N,LED_1*%
X154470098Y-85064598D03*
X154089098Y-82397598D03*
D20*
X153327098Y-91414598D03*
D21*
X154871591Y-88387092D03*
%TO.N,N$8*%
X134991098Y-88112598D03*
%TO.N,N$2*%
X137706098Y-83413598D03*
X136817098Y-92557598D03*
%TO.N,N$18*%
X163106098Y-93700598D03*
%TD*%
%TO.N,GND*%
D22*
X157010098Y-97002598D02*
X156629098Y-96621598D01*
X155994098Y-115796198D02*
X155994098Y-112623598D01*
D23*
X145453098Y-109194598D02*
X147231098Y-109194598D01*
X147231098Y-109194598D02*
X148247098Y-110210598D01*
D22*
X155105098Y-109575598D02*
X155486098Y-109956598D01*
X160334698Y-97510598D02*
X159826698Y-97002598D01*
D23*
X149771098Y-111353598D02*
X148247098Y-111353598D01*
D22*
X159826698Y-97002598D02*
X157010098Y-97002598D01*
X155994098Y-112623598D02*
X155486098Y-112115598D01*
X154851098Y-116939198D02*
X155994098Y-115796198D01*
X138998698Y-101089198D02*
X138998698Y-101066598D01*
X143167098Y-105257598D02*
X138998698Y-101089198D01*
D23*
X148247098Y-110210598D02*
X148247098Y-111353598D01*
D22*
X155486098Y-109956598D02*
X155486098Y-112115598D01*
X145453098Y-105257598D02*
X143167098Y-105257598D01*
%TO.N,+3V3*%
D23*
X164249098Y-81889598D02*
X164249098Y-87858598D01*
X137960098Y-107924598D02*
X137960098Y-99288598D01*
D22*
X148120098Y-93192598D02*
X148755098Y-93827598D01*
D23*
X159305563Y-89001598D02*
X159305563Y-95831827D01*
D22*
X155867098Y-118211598D02*
X155867098Y-116941598D01*
D23*
X163741098Y-88366598D02*
X159931098Y-88366598D01*
X137696633Y-95831827D02*
X137696633Y-89001598D01*
X137960098Y-96095292D02*
X137696633Y-95831827D01*
D22*
X148755098Y-93827598D02*
X153454098Y-93827598D01*
D23*
X137960098Y-110337598D02*
X137960098Y-107924598D01*
X164249098Y-87858598D02*
X163741098Y-88366598D01*
X153674538Y-80643923D02*
X163003423Y-80643923D01*
D24*
X148120098Y-93319598D02*
X148120098Y-93192598D01*
X146850098Y-94589598D02*
X148120098Y-93319598D01*
X146850098Y-100812598D02*
X146850098Y-94589598D01*
D25*
X145580098Y-107924598D02*
X137960098Y-107924598D01*
D22*
X148120098Y-84556598D02*
X148120098Y-93192598D01*
X160947098Y-87350598D02*
X159305563Y-88992133D01*
X157899098Y-102082598D02*
X157899098Y-99542598D01*
X159305563Y-88992133D02*
X159305563Y-89001598D01*
D23*
X137960098Y-99288598D02*
X137960098Y-96095292D01*
X159931098Y-88366598D02*
X159305563Y-88992133D01*
D22*
X142151098Y-89890598D02*
X146850098Y-94589598D01*
X157899098Y-99542598D02*
X158407098Y-99034598D01*
D23*
X137696633Y-86274948D02*
X143327658Y-80643923D01*
X143929098Y-80643923D02*
X148501098Y-80643923D01*
X148501098Y-80643923D02*
X153674538Y-80643923D01*
D22*
X143929098Y-84556598D02*
X143929098Y-80643923D01*
D24*
X146850098Y-94462598D02*
X146850098Y-94589598D01*
D22*
X163484698Y-125829198D02*
X155867098Y-118211598D01*
D23*
X163003423Y-80643923D02*
X164249098Y-81889598D01*
X143327658Y-80643923D02*
X143929098Y-80643923D01*
D22*
X158407098Y-99034598D02*
X159677098Y-99034598D01*
D23*
X137696633Y-89001598D02*
X137696633Y-86274948D01*
D22*
X164630098Y-125829198D02*
X163484698Y-125829198D01*
X144183098Y-84810598D02*
X143929098Y-84556598D01*
D23*
X136690098Y-111607598D02*
X137960098Y-110337598D01*
%TO.N,+5V*%
D22*
X145834098Y-124790198D02*
X146469098Y-124155198D01*
X143802098Y-123799598D02*
X144792698Y-124790198D01*
X146469098Y-120751598D02*
X146977098Y-120243598D01*
X146469098Y-124155198D02*
X146469098Y-120751598D01*
X144792698Y-124790198D02*
X145834098Y-124790198D01*
X138569698Y-124790198D02*
X142049498Y-124790198D01*
X138087098Y-124307598D02*
X138087098Y-123291598D01*
X138087098Y-123291598D02*
X139103098Y-122275598D01*
X142049498Y-124790198D02*
X143040098Y-123799598D01*
X149009098Y-121767598D02*
X157645098Y-121767598D01*
X143040098Y-123799598D02*
X143802098Y-123799598D01*
X146977098Y-120243598D02*
X147485098Y-120243598D01*
X139103098Y-122275598D02*
X139103098Y-122021598D01*
X138087098Y-124307598D02*
X138569698Y-124790198D01*
X147485098Y-120243598D02*
X149009098Y-121767598D01*
%TO.N,N$28*%
X165890629Y-92316730D02*
X165890629Y-96649373D01*
X162956498Y-89382598D02*
X165890629Y-92316730D01*
%TO.N,SWDIO*%
X161328098Y-119608598D02*
X162471098Y-119608598D01*
X155359098Y-101447598D02*
X155359098Y-101828598D01*
X155359098Y-101828598D02*
X158534098Y-105003598D01*
X165265098Y-117957598D02*
X166281098Y-117957598D01*
X160185098Y-119100598D02*
X160820098Y-119100598D01*
X158534098Y-117449598D02*
X160185098Y-119100598D01*
X158534098Y-105003598D02*
X158534098Y-117449598D01*
X160820098Y-119100598D02*
X161328098Y-119608598D01*
X166789098Y-120751598D02*
X165900098Y-121640598D01*
X166789098Y-118465598D02*
X166789098Y-120751598D01*
X166281098Y-117957598D02*
X166789098Y-118465598D01*
%TO.N,SWCLK*%
X160312098Y-118592598D02*
X161455098Y-118592598D01*
X153708098Y-92430598D02*
X154216098Y-92938598D01*
X159042098Y-117322598D02*
X160312098Y-118592598D01*
X167297098Y-121513598D02*
X167297098Y-118211598D01*
X155991698Y-100558598D02*
X155991698Y-101826198D01*
X167297098Y-118211598D02*
X166385498Y-117299998D01*
X165900098Y-122910598D02*
X167297098Y-121513598D01*
X166385498Y-117299998D02*
X164503098Y-117299998D01*
X154216098Y-94335598D02*
X153835098Y-94716598D01*
X155991698Y-101826198D02*
X159042098Y-104876598D01*
X159042098Y-104876598D02*
X159042098Y-117322598D01*
X154216098Y-92938598D02*
X154216098Y-94335598D01*
%TO.N,NRST*%
X154597098Y-108940598D02*
X155486098Y-108940598D01*
X141389098Y-90144598D02*
X145199098Y-93954598D01*
X152692098Y-110845598D02*
X154597098Y-108940598D01*
X156502098Y-109956598D02*
X156502098Y-118211598D01*
X146085698Y-103791461D02*
X146085698Y-105763198D01*
X150279098Y-110845598D02*
X152692098Y-110845598D01*
X163487098Y-125196598D02*
X164884098Y-125196598D01*
X146342098Y-106019598D02*
X146342098Y-106908598D01*
X155486098Y-108940598D02*
X156502098Y-109956598D01*
X146085698Y-105763198D02*
X146342098Y-106019598D01*
X141770098Y-88493598D02*
X141389098Y-88874598D01*
X156502098Y-118211598D02*
X163487098Y-125196598D01*
X141389098Y-88874598D02*
X141389098Y-90144598D01*
X145199098Y-102904861D02*
X146085698Y-103791461D01*
X146342098Y-106908598D02*
X150279098Y-110845598D01*
X145199098Y-93954598D02*
X145199098Y-102904861D01*
X164884098Y-125196598D02*
X165900098Y-124180598D01*
%TO.N,BOOT0*%
X159550098Y-103293998D02*
X159804098Y-103547998D01*
X151168098Y-86969598D02*
X151168098Y-86842598D01*
X160312098Y-107289598D02*
X160312098Y-107797598D01*
X160058098Y-113870998D02*
X160207698Y-114020598D01*
X152565098Y-88366598D02*
X151168098Y-86969598D01*
X160058098Y-108051598D02*
X160058098Y-113870998D01*
X160312098Y-107797598D02*
X160058098Y-108051598D01*
X159550098Y-100685598D02*
X159550098Y-103293998D01*
X158788098Y-99923598D02*
X159550098Y-100685598D01*
%TO.N,USART1_TX*%
X160693098Y-121640598D02*
X164630098Y-121640598D01*
X157010098Y-117957598D02*
X160693098Y-121640598D01*
X157010098Y-105511598D02*
X157010098Y-117957598D01*
X153454098Y-101955598D02*
X157010098Y-105511598D01*
X153454098Y-101320598D02*
X153454098Y-101955598D01*
%TO.N,USART1_RX*%
X154089098Y-101955598D02*
X157518098Y-105384598D01*
X160058098Y-120370598D02*
X164630098Y-120370598D01*
X157518098Y-117830598D02*
X160058098Y-120370598D01*
X157518098Y-105384598D02*
X157518098Y-117830598D01*
X154089098Y-100685598D02*
X154089098Y-101955598D01*
%TO.N,SWO*%
X159550098Y-104749598D02*
X159550098Y-117068598D01*
X154724098Y-92303598D02*
X154724098Y-95605598D01*
X159550098Y-117068598D02*
X160312098Y-117830598D01*
X156629098Y-101447598D02*
X156629098Y-101828598D01*
X163360098Y-117830598D02*
X164630098Y-119100598D01*
X159550098Y-104749598D02*
X156629098Y-101828598D01*
X160312098Y-117830598D02*
X163360098Y-117830598D01*
%TO.N,GND2*%
X130464698Y-118965560D02*
X130094136Y-118594998D01*
X148249917Y-120113779D02*
X148249917Y-120052679D01*
X130464698Y-122059729D02*
X130464698Y-118965560D01*
D25*
X134148880Y-137121379D02*
X130975098Y-125577598D01*
X135108598Y-138081098D02*
X134289098Y-137261598D01*
D22*
X130094136Y-118594998D02*
X129570061Y-118594998D01*
X148249917Y-120052679D02*
X148034436Y-119837198D01*
D25*
X134289098Y-137261598D02*
X134148880Y-137121379D01*
D22*
X146808761Y-119837198D02*
X145707098Y-120938860D01*
X132712567Y-124307598D02*
X130464698Y-122059729D01*
D25*
X134289098Y-137261598D02*
X134277098Y-137261598D01*
D22*
X145707098Y-120938860D02*
X145707098Y-122402598D01*
X137071098Y-124307598D02*
X132712567Y-124307598D01*
X148034436Y-119837198D02*
X146808761Y-119837198D01*
%TO.N,FRAM_CS*%
X152819098Y-102336598D02*
X152819098Y-101955598D01*
X156248098Y-105765598D02*
X152819098Y-102336598D01*
%TO.N,EC_R_B*%
X158788098Y-100939598D02*
X158788098Y-102486198D01*
%TO.N,LED_2*%
X158051498Y-117703598D02*
X160083498Y-119735598D01*
X154724098Y-100052998D02*
X154724098Y-101888861D01*
X158051498Y-105216260D02*
X158051498Y-117703598D01*
X154721698Y-100050598D02*
X154724098Y-100052998D01*
X160083498Y-119735598D02*
X160439098Y-119735598D01*
X154724098Y-101888861D02*
X158051498Y-105216260D01*
%TO.N,PUSH_IN_1*%
X140982698Y-90373198D02*
X140982698Y-88351011D01*
X145326098Y-103606598D02*
X144792698Y-103073198D01*
X143253111Y-86080598D02*
X144437098Y-86080598D01*
X144792698Y-103073198D02*
X144792698Y-94183198D01*
X134505698Y-125602998D02*
X148348698Y-125602998D01*
X149263098Y-124688598D02*
X149263098Y-123926598D01*
X147231098Y-121894598D02*
X147231098Y-121005598D01*
X148348698Y-125602998D02*
X149263098Y-124688598D01*
X149263098Y-123926598D02*
X147231098Y-121894598D01*
X140982698Y-88351011D02*
X143253111Y-86080598D01*
X145326098Y-104241598D02*
X145326098Y-103606598D01*
X144792698Y-94183198D02*
X140982698Y-90373198D01*
X133642098Y-126466598D02*
X134505698Y-125602998D01*
%TO.N,SENSOR_R*%
X132727698Y-81340261D02*
X141982761Y-72085198D01*
X132727698Y-89230198D02*
X132727698Y-81340261D01*
X141982761Y-72085198D02*
X152225435Y-72085198D01*
X152225435Y-72085198D02*
X157203835Y-77063598D01*
X156604776Y-78563277D02*
X156629098Y-78587598D01*
X133134098Y-89636598D02*
X132727698Y-89230198D01*
X157559085Y-78587598D02*
X156629098Y-78587598D01*
X157772098Y-77063598D02*
X158153098Y-77444598D01*
X157203835Y-77063598D02*
X157772098Y-77063598D01*
X158153098Y-77993586D02*
X157559085Y-78587598D01*
X158153098Y-77444598D02*
X158153098Y-77993586D01*
X152217654Y-78563277D02*
X156604776Y-78563277D01*
%TO.N,N$11*%
X147739098Y-125196598D02*
X148628098Y-124307598D01*
X129832098Y-122402598D02*
X129832098Y-119227598D01*
X132626098Y-125196598D02*
X147739098Y-125196598D01*
X129832098Y-122402598D02*
X132626098Y-125196598D01*
%TO.N,SENSOR_L*%
X136436098Y-97002598D02*
X136436098Y-95732598D01*
X144784542Y-78563277D02*
X140143420Y-78563277D01*
X136436098Y-95732598D02*
X136055098Y-95351598D01*
X140143420Y-78563277D02*
X136055098Y-82651598D01*
X136055098Y-95351598D02*
X136055098Y-82651598D01*
%TO.N,IR_R*%
X152057098Y-90271598D02*
X155105098Y-87223598D01*
%TO.N,SPI2_MISO*%
X148755098Y-103225598D02*
X149517098Y-102463598D01*
X147612098Y-103225598D02*
X148755098Y-103225598D01*
X151295098Y-101320598D02*
X151295098Y-100685598D01*
X150152098Y-102463598D02*
X151295098Y-101320598D01*
X149517098Y-102463598D02*
X150152098Y-102463598D01*
%TO.N,SPI2_MOSI*%
X148850498Y-104904198D02*
X150378498Y-104904198D01*
X150378498Y-104904198D02*
X152057098Y-103225598D01*
X152184098Y-101193598D02*
X152184098Y-103098598D01*
X152184098Y-103098598D02*
X152057098Y-103225598D01*
%TO.N,SPI2_SCK*%
X149514279Y-101577417D02*
X149900916Y-101577417D01*
X149514279Y-101577417D02*
X148501098Y-102590598D01*
X148247098Y-102590598D02*
X148501098Y-102590598D01*
%TO.N,SENSOR_FR*%
X133134098Y-81508598D02*
X133134098Y-87985598D01*
X157391098Y-77825598D02*
X152057098Y-72491598D01*
X133134098Y-87985598D02*
X134023098Y-88874598D01*
X152057098Y-72491598D02*
X142151098Y-72491598D01*
X142151098Y-72491598D02*
X133134098Y-81508598D01*
%TO.N,SENSOR_FL*%
X135648698Y-83388198D02*
X135648698Y-95668242D01*
X135293098Y-83032598D02*
X135648698Y-83388198D01*
X135293098Y-81889598D02*
X135293098Y-83032598D01*
X135648698Y-95668242D02*
X135175567Y-96141373D01*
%TO.N,IR_FL*%
X142659098Y-85445598D02*
X140246098Y-87858598D01*
X140246098Y-87858598D02*
X138849098Y-87858598D01*
X142659098Y-84937598D02*
X142659098Y-85445598D01*
%TO.N,LED_3*%
X145069698Y-85818561D02*
X144699136Y-85447998D01*
X145069698Y-86342636D02*
X145069698Y-85818561D01*
X140576298Y-90601798D02*
X144310098Y-94335598D01*
X144434698Y-103477198D02*
X144310098Y-103352598D01*
X143084773Y-85674198D02*
X140576298Y-88182673D01*
X144175061Y-85447998D02*
X143948861Y-85674198D01*
X144818098Y-86594236D02*
X145069698Y-86342636D01*
X144818098Y-88620598D02*
X144818098Y-86594236D01*
X144310098Y-103352598D02*
X144310098Y-94335598D01*
X143948861Y-85674198D02*
X143084773Y-85674198D01*
X144434698Y-104114598D02*
X144434698Y-103477198D01*
X140576298Y-88182673D02*
X140576298Y-90601798D01*
X144699136Y-85447998D02*
X144175061Y-85447998D01*
%TO.N,MOTOR_L_DIR*%
X141010917Y-101704417D02*
X141010917Y-102085417D01*
X139992098Y-99161598D02*
X139992098Y-100685598D01*
X140500098Y-113258598D02*
X139103098Y-114655598D01*
X139738098Y-116433598D02*
X139103098Y-115798598D01*
X138849098Y-123291598D02*
X139738098Y-122402598D01*
X140500098Y-111988598D02*
X140500098Y-113258598D01*
X138849098Y-124053598D02*
X138849098Y-123291598D01*
X139738098Y-122402598D02*
X139738098Y-116433598D01*
X139103098Y-114655598D02*
X139103098Y-115798598D01*
X139992098Y-100685598D02*
X141010917Y-101704417D01*
%TO.N,MOTOR_L_PWM*%
X142151098Y-120370598D02*
X141899917Y-120621779D01*
X141516098Y-113258598D02*
X141897098Y-113639598D01*
X142151098Y-119481598D02*
X142151098Y-120370598D01*
X141516098Y-111988598D02*
X141516098Y-113258598D01*
X141897098Y-119227598D02*
X142151098Y-119481598D01*
X140629498Y-99923598D02*
X141645498Y-100939598D01*
X141645498Y-100939598D02*
X141645498Y-101450836D01*
X141897098Y-113639598D02*
X141897098Y-119227598D01*
%TO.N,MOTOR_R_DIR*%
X140260311Y-115163598D02*
X140260311Y-115685810D01*
X141391917Y-116817416D02*
X141391917Y-119865416D01*
X140260311Y-115685810D02*
X141391917Y-116817416D01*
%TO.N,MOTOR_STBY*%
X139611098Y-115671598D02*
X140500098Y-116560598D01*
X140500098Y-113893598D02*
X139611098Y-114782598D01*
X140500098Y-122402598D02*
X140500098Y-119862598D01*
X140500098Y-116560598D02*
X140500098Y-119862598D01*
X139738098Y-124053598D02*
X139738098Y-123164598D01*
X139611098Y-114782598D02*
X139611098Y-115671598D01*
X139738098Y-123164598D02*
X140500098Y-122402598D01*
X141135098Y-113893598D02*
X140500098Y-113893598D01*
%TO.N,LED_1*%
X153327098Y-89931586D02*
X154871591Y-88387092D01*
X154470098Y-85064598D02*
X154470098Y-84302598D01*
X153327098Y-91414598D02*
X153327098Y-89931586D01*
X154470098Y-84302598D02*
X154089098Y-83921598D01*
X154089098Y-83921598D02*
X154089098Y-82397598D01*
%TO.N,N$8*%
X134991098Y-88112598D02*
X134991098Y-92769842D01*
X134991098Y-92769842D02*
X131111567Y-96649373D01*
%TO.N,N$2*%
X137706098Y-83413598D02*
X136842498Y-84277198D01*
X136842498Y-84277198D02*
X136842498Y-92532198D01*
X136842498Y-92532198D02*
X136817098Y-92557598D01*
%TO.N,N$18*%
X163369563Y-96339827D02*
X163369563Y-93964064D01*
X163369563Y-93964064D02*
X163106098Y-93700598D01*
%TD*%
%TA.AperFunction,Conductor*%
%TO.N,GND2*%
G36*
X129616054Y-122559282D02*
G01*
X129645374Y-122575792D01*
X132481935Y-125412353D01*
X132481936Y-125412353D01*
X132481938Y-125412355D01*
X132575472Y-125451098D01*
X132575475Y-125451099D01*
X132575476Y-125451099D01*
X132683994Y-125451099D01*
X132685922Y-125451099D01*
X132685954Y-125451098D01*
X134134361Y-125451098D01*
X134158271Y-125455853D01*
X134164493Y-125458430D01*
X134198317Y-125492252D01*
X134198320Y-125540087D01*
X134198318Y-125540092D01*
X134195743Y-125546308D01*
X134182195Y-125566582D01*
X133785034Y-125963741D01*
X133764758Y-125977289D01*
X133748419Y-125984057D01*
X133708327Y-125986686D01*
X133705388Y-125985898D01*
X133705384Y-125985898D01*
X133705383Y-125985898D01*
X133578813Y-125985898D01*
X133578812Y-125985898D01*
X133578810Y-125985898D01*
X133578800Y-125985900D01*
X133456582Y-126018647D01*
X133456555Y-126018655D01*
X133379505Y-126063141D01*
X133379504Y-126063140D01*
X133346937Y-126081944D01*
X133346935Y-126081945D01*
X133257454Y-126171427D01*
X133257443Y-126171438D01*
X133257443Y-126171439D01*
X133194153Y-126281059D01*
X133194097Y-126281272D01*
X133183317Y-126303131D01*
X133174681Y-126314388D01*
X133141281Y-126336712D01*
X133138473Y-126337465D01*
X133133608Y-126338105D01*
X133133257Y-126338309D01*
X133132864Y-126338203D01*
X133122285Y-126339598D01*
X130473568Y-126339598D01*
X130449650Y-126334840D01*
X130448542Y-126334381D01*
X130436395Y-126329349D01*
X130406327Y-126303098D01*
X130404986Y-126300799D01*
X130398753Y-126286037D01*
X130397429Y-126281272D01*
X130138325Y-125348498D01*
X130119506Y-125280751D01*
X130119504Y-125280724D01*
X130106527Y-125234011D01*
X130106387Y-125233500D01*
X130106199Y-125232795D01*
X130028719Y-124934361D01*
X129895670Y-124421886D01*
X129895431Y-124420933D01*
X129895257Y-124420213D01*
X129895178Y-124419887D01*
X129894948Y-124418899D01*
X129881370Y-124358220D01*
X129818413Y-124076876D01*
X129712201Y-123602231D01*
X129711998Y-123601279D01*
X129711780Y-123600218D01*
X129711587Y-123599239D01*
X129711156Y-123596952D01*
X129708686Y-123583844D01*
X129556618Y-122776951D01*
X129556433Y-122775923D01*
X129556276Y-122775006D01*
X129556105Y-122773948D01*
X129534804Y-122635273D01*
X129535874Y-122610910D01*
X129537476Y-122604374D01*
X129565775Y-122565808D01*
X129566328Y-122565723D01*
X129613051Y-122558546D01*
X129616054Y-122559282D01*
G37*
%TD.AperFunction*%
%TA.AperFunction,Conductor*%
G36*
X137027166Y-110596353D02*
G01*
X137033388Y-110598930D01*
X137067212Y-110632752D01*
X137067215Y-110680587D01*
X137067213Y-110680592D01*
X137064638Y-110686808D01*
X137051090Y-110707082D01*
X136650568Y-111107603D01*
X136637625Y-111117535D01*
X136623857Y-111125484D01*
X136608784Y-111131727D01*
X136512506Y-111157526D01*
X136512501Y-111157526D01*
X136512502Y-111157527D01*
X136504551Y-111159657D01*
X136427930Y-111203894D01*
X136427786Y-111203978D01*
X136427582Y-111204097D01*
X136394941Y-111222942D01*
X136394940Y-111222943D01*
X136394936Y-111222946D01*
X136393769Y-111224112D01*
X136393765Y-111224115D01*
X136305454Y-111312427D01*
X136305446Y-111312436D01*
X136305443Y-111312440D01*
X136242159Y-111422048D01*
X136242155Y-111422055D01*
X136242147Y-111422082D01*
X136209398Y-111544306D01*
X136209398Y-111670888D01*
X136242147Y-111793112D01*
X136242152Y-111793128D01*
X136242155Y-111793137D01*
X136242156Y-111793141D01*
X136249716Y-111806236D01*
X136249717Y-111806236D01*
X136269120Y-111839844D01*
X136305443Y-111902756D01*
X136305446Y-111902760D01*
X136394936Y-111992249D01*
X136394941Y-111992254D01*
X136425624Y-112009968D01*
X136498216Y-112051880D01*
X136504551Y-112055537D01*
X136504553Y-112055538D01*
X136504555Y-112055539D01*
X136504558Y-112055540D01*
X136504568Y-112055542D01*
X136504582Y-112055547D01*
X136579365Y-112075584D01*
X136579371Y-112075585D01*
X136579374Y-112075586D01*
X136626813Y-112088298D01*
X136626814Y-112088298D01*
X136753382Y-112088298D01*
X136753383Y-112088298D01*
X136875641Y-112055539D01*
X136985255Y-111992254D01*
X137074754Y-111902755D01*
X137138039Y-111793141D01*
X137138337Y-111792031D01*
X137164753Y-111693441D01*
X137165968Y-111688907D01*
X137172206Y-111673843D01*
X137180160Y-111660066D01*
X137190085Y-111647132D01*
X138218526Y-110618692D01*
X138238795Y-110605148D01*
X138260026Y-110596354D01*
X138283940Y-110591598D01*
X146267167Y-110591598D01*
X146291087Y-110596357D01*
X146299876Y-110599998D01*
X146333696Y-110633815D01*
X146335109Y-110637226D01*
X146337338Y-110642607D01*
X146342098Y-110666529D01*
X146342098Y-120480359D01*
X146337340Y-120504278D01*
X146328550Y-120525498D01*
X146315000Y-120545776D01*
X146297842Y-120562931D01*
X146297838Y-120562940D01*
X146253342Y-120607436D01*
X146214598Y-120700975D01*
X146214598Y-124011460D01*
X146209840Y-124035379D01*
X146201049Y-124056601D01*
X146187501Y-124076876D01*
X145755776Y-124508601D01*
X145735502Y-124522148D01*
X145714276Y-124530940D01*
X145690361Y-124535698D01*
X144936435Y-124535698D01*
X144912518Y-124530940D01*
X144891293Y-124522148D01*
X144871019Y-124508601D01*
X143946262Y-123583844D01*
X143946261Y-123583843D01*
X143946256Y-123583841D01*
X143918860Y-123572493D01*
X143852721Y-123545098D01*
X143852720Y-123545098D01*
X142989475Y-123545098D01*
X142895937Y-123583841D01*
X142895935Y-123583842D01*
X142895929Y-123583847D01*
X141971176Y-124508601D01*
X141950902Y-124522148D01*
X141929676Y-124530940D01*
X141905761Y-124535698D01*
X140099130Y-124535698D01*
X140075214Y-124530940D01*
X140068992Y-124528363D01*
X140035171Y-124494539D01*
X140035171Y-124446707D01*
X140037750Y-124440481D01*
X140051316Y-124420192D01*
X140052125Y-124419384D01*
X140122754Y-124348755D01*
X140186039Y-124239141D01*
X140218798Y-124116883D01*
X140218798Y-123990313D01*
X140186039Y-123868055D01*
X140122754Y-123758441D01*
X140102274Y-123737961D01*
X140033260Y-123668946D01*
X140033254Y-123668941D01*
X140027909Y-123665855D01*
X140022352Y-123660466D01*
X140021311Y-123658060D01*
X140016278Y-123653646D01*
X140005511Y-123639613D01*
X139992598Y-123601568D01*
X139992598Y-123308335D01*
X139997354Y-123284421D01*
X140006148Y-123263190D01*
X140019691Y-123242922D01*
X140313771Y-122948843D01*
X140715853Y-122546761D01*
X140754599Y-122453221D01*
X140754599Y-122351975D01*
X140754599Y-122346944D01*
X140754599Y-122345859D01*
X140754598Y-122345801D01*
X140754598Y-120319242D01*
X140759355Y-120295326D01*
X140761300Y-120290631D01*
X140766123Y-120278986D01*
X140766125Y-120278985D01*
X140792625Y-120248772D01*
X140795255Y-120247254D01*
X140884754Y-120157755D01*
X140884847Y-120157592D01*
X140885092Y-120157313D01*
X140887245Y-120154508D01*
X140887428Y-120154649D01*
X140900926Y-120139255D01*
X140908483Y-120133456D01*
X140954684Y-120121078D01*
X140955467Y-120121181D01*
X140991434Y-120138934D01*
X140993491Y-120140990D01*
X141003432Y-120153941D01*
X141005634Y-120157755D01*
X141007262Y-120160575D01*
X141007265Y-120160578D01*
X141093939Y-120247251D01*
X141096760Y-120250072D01*
X141117529Y-120262063D01*
X141195034Y-120306811D01*
X141195035Y-120306811D01*
X141206372Y-120313356D01*
X141206374Y-120313357D01*
X141206377Y-120313358D01*
X141206387Y-120313360D01*
X141206401Y-120313365D01*
X141277040Y-120332292D01*
X141277045Y-120332292D01*
X141281193Y-120333404D01*
X141328632Y-120346116D01*
X141328633Y-120346116D01*
X141387241Y-120346116D01*
X141391115Y-120346602D01*
X141393982Y-120348234D01*
X141407256Y-120350875D01*
X141416045Y-120354516D01*
X141430616Y-120369087D01*
X141432687Y-120370266D01*
X141433024Y-120371495D01*
X141449866Y-120388337D01*
X141450958Y-120390973D01*
X141452380Y-120434225D01*
X141452505Y-120434259D01*
X141452395Y-120434669D01*
X141452405Y-120434969D01*
X141451975Y-120436235D01*
X141419217Y-120558487D01*
X141419217Y-120685069D01*
X141451966Y-120807293D01*
X141451973Y-120807315D01*
X141451996Y-120807385D01*
X141452438Y-120808124D01*
X141515258Y-120916931D01*
X141515261Y-120916936D01*
X141604760Y-121006435D01*
X141634020Y-121023328D01*
X141703244Y-121063295D01*
X141703245Y-121063295D01*
X141704735Y-121064155D01*
X141714372Y-121069719D01*
X141714373Y-121069719D01*
X141714374Y-121069720D01*
X141714377Y-121069721D01*
X141769022Y-121084363D01*
X141798831Y-121092350D01*
X141836627Y-121102478D01*
X141836630Y-121102478D01*
X141836632Y-121102479D01*
X141836633Y-121102479D01*
X141963201Y-121102479D01*
X141963202Y-121102479D01*
X142085460Y-121069720D01*
X142195074Y-121006435D01*
X142284573Y-120916936D01*
X142347858Y-120807322D01*
X142380617Y-120685064D01*
X142380617Y-120558494D01*
X142376255Y-120542216D01*
X142374260Y-120521959D01*
X142375538Y-120502456D01*
X142380162Y-120482627D01*
X142400914Y-120432532D01*
X142405599Y-120421221D01*
X142405599Y-120319975D01*
X142405599Y-120314944D01*
X142405599Y-120313859D01*
X142405598Y-120313801D01*
X142405598Y-119430977D01*
X142405598Y-119430975D01*
X142366853Y-119337435D01*
X142366851Y-119337433D01*
X142291706Y-119262287D01*
X142291691Y-119262274D01*
X142178694Y-119149276D01*
X142165147Y-119129002D01*
X142156354Y-119107775D01*
X142151598Y-119083860D01*
X142151598Y-113588977D01*
X142151598Y-113588975D01*
X142112853Y-113495435D01*
X142091771Y-113474353D01*
X142037706Y-113420287D01*
X142037691Y-113420274D01*
X141797693Y-113180275D01*
X141784146Y-113160000D01*
X141775354Y-113138775D01*
X141770598Y-113114860D01*
X141770598Y-112445242D01*
X141775355Y-112421326D01*
X141777300Y-112416631D01*
X141782123Y-112404986D01*
X141782125Y-112404985D01*
X141808625Y-112374772D01*
X141811255Y-112373254D01*
X141900754Y-112283755D01*
X141964039Y-112174141D01*
X141996798Y-112051883D01*
X141996798Y-111925313D01*
X141973897Y-111839844D01*
X141964048Y-111803086D01*
X141964044Y-111803074D01*
X141964040Y-111803058D01*
X141964039Y-111803055D01*
X141958313Y-111793137D01*
X141958312Y-111793135D01*
X141958312Y-111793134D01*
X141900756Y-111693445D01*
X141900754Y-111693441D01*
X141860260Y-111652947D01*
X141811260Y-111603946D01*
X141811251Y-111603939D01*
X141734206Y-111559456D01*
X141734206Y-111559457D01*
X141701641Y-111540656D01*
X141701612Y-111540647D01*
X141579399Y-111507901D01*
X141579390Y-111507899D01*
X141579389Y-111507899D01*
X141579384Y-111507898D01*
X141579383Y-111507898D01*
X141452810Y-111507898D01*
X141452800Y-111507900D01*
X141330582Y-111540647D01*
X141330555Y-111540655D01*
X141253505Y-111585141D01*
X141253504Y-111585140D01*
X141220937Y-111603944D01*
X141220935Y-111603945D01*
X141131454Y-111693427D01*
X141131446Y-111693436D01*
X141131443Y-111693440D01*
X141071964Y-111796459D01*
X141067420Y-111803259D01*
X141056801Y-111817096D01*
X141015373Y-111841011D01*
X140969178Y-111828635D01*
X140967263Y-111827166D01*
X140947560Y-111801491D01*
X140943642Y-111792031D01*
X140939669Y-111788556D01*
X140884756Y-111693445D01*
X140884754Y-111693441D01*
X140844260Y-111652947D01*
X140795260Y-111603946D01*
X140795251Y-111603939D01*
X140718206Y-111559456D01*
X140718206Y-111559457D01*
X140685641Y-111540656D01*
X140685612Y-111540647D01*
X140563399Y-111507901D01*
X140563390Y-111507899D01*
X140563389Y-111507899D01*
X140563384Y-111507898D01*
X140563383Y-111507898D01*
X140436810Y-111507898D01*
X140436800Y-111507900D01*
X140314582Y-111540647D01*
X140314555Y-111540655D01*
X140237505Y-111585141D01*
X140237504Y-111585140D01*
X140204937Y-111603944D01*
X140204935Y-111603945D01*
X140115454Y-111693427D01*
X140115446Y-111693436D01*
X140115443Y-111693440D01*
X140052159Y-111803048D01*
X140052155Y-111803055D01*
X140052147Y-111803082D01*
X140019398Y-111925306D01*
X140019398Y-112051888D01*
X140052147Y-112174112D01*
X140052154Y-112174134D01*
X140052177Y-112174204D01*
X140052619Y-112174943D01*
X140115439Y-112283750D01*
X140115442Y-112283755D01*
X140204941Y-112373254D01*
X140204944Y-112373256D01*
X140208191Y-112375747D01*
X140207840Y-112376203D01*
X140221911Y-112388542D01*
X140232679Y-112402574D01*
X140245598Y-112440624D01*
X140245598Y-113114859D01*
X140240840Y-113138778D01*
X140232049Y-113160000D01*
X140218501Y-113180275D01*
X138931838Y-114466937D01*
X138931837Y-114466941D01*
X138887343Y-114511434D01*
X138887342Y-114511435D01*
X138860515Y-114576204D01*
X138848598Y-114604975D01*
X138848598Y-115849220D01*
X138887342Y-115942759D01*
X138887344Y-115942762D01*
X138887347Y-115942765D01*
X139456501Y-116511919D01*
X139470048Y-116532193D01*
X139478840Y-116553418D01*
X139483598Y-116577335D01*
X139483598Y-121565530D01*
X139478838Y-121589454D01*
X139475196Y-121598244D01*
X139441403Y-121632050D01*
X139440728Y-121632330D01*
X139400617Y-121634974D01*
X139397808Y-121634221D01*
X139382726Y-121627976D01*
X139296098Y-121577962D01*
X139296098Y-121577961D01*
X139296094Y-121577960D01*
X139288640Y-121573656D01*
X139288639Y-121573655D01*
X139288612Y-121573647D01*
X139166399Y-121540901D01*
X139166390Y-121540899D01*
X139166389Y-121540899D01*
X139166384Y-121540898D01*
X139166383Y-121540898D01*
X139039810Y-121540898D01*
X139039800Y-121540900D01*
X138917582Y-121573647D01*
X138917555Y-121573655D01*
X138917543Y-121573661D01*
X138845603Y-121615197D01*
X138807939Y-121636942D01*
X138807935Y-121636945D01*
X138718454Y-121726427D01*
X138718446Y-121726436D01*
X138718443Y-121726440D01*
X138655159Y-121836048D01*
X138655155Y-121836055D01*
X138655147Y-121836082D01*
X138622398Y-121958306D01*
X138622398Y-122084888D01*
X138655154Y-122207136D01*
X138655157Y-122207141D01*
X138682237Y-122254047D01*
X138690075Y-122277137D01*
X138691927Y-122291202D01*
X138684082Y-122330622D01*
X138682627Y-122333141D01*
X138679651Y-122337017D01*
X138679547Y-122337408D01*
X138679197Y-122337610D01*
X138672701Y-122346074D01*
X138059948Y-122958830D01*
X137942935Y-123075843D01*
X137913374Y-123105404D01*
X137871344Y-123147432D01*
X137871343Y-123147433D01*
X137871341Y-123147437D01*
X137832598Y-123240975D01*
X137832598Y-124358220D01*
X137858997Y-124421954D01*
X137871344Y-124451763D01*
X138246196Y-124826613D01*
X138259742Y-124846884D01*
X138262319Y-124853104D01*
X138262320Y-124900939D01*
X138228500Y-124934763D01*
X138228498Y-124934763D01*
X138228497Y-124934764D01*
X138228496Y-124934765D01*
X138228495Y-124934765D01*
X138222285Y-124937338D01*
X138198362Y-124942098D01*
X132769835Y-124942098D01*
X132745918Y-124937340D01*
X132724693Y-124928548D01*
X132704419Y-124915001D01*
X130113694Y-122324276D01*
X130100147Y-122304002D01*
X130091354Y-122282775D01*
X130086598Y-122258860D01*
X130086598Y-121661839D01*
X131041398Y-121661839D01*
X131041398Y-122381351D01*
X131048488Y-122416995D01*
X131048795Y-122418538D01*
X131048798Y-122418543D01*
X131048811Y-122418563D01*
X131048817Y-122418572D01*
X131062246Y-122438670D01*
X131069862Y-122450068D01*
X131069866Y-122450073D01*
X131568638Y-122948843D01*
X131578629Y-122958834D01*
X131610156Y-122979901D01*
X131647345Y-122987298D01*
X131647346Y-122987298D01*
X132366845Y-122987298D01*
X132366846Y-122987298D01*
X132404040Y-122979900D01*
X132435570Y-122958832D01*
X132829313Y-122565087D01*
X132849581Y-122551544D01*
X132858378Y-122547901D01*
X132906208Y-122547901D01*
X132915000Y-122551543D01*
X132935276Y-122565090D01*
X133480625Y-123110440D01*
X133480637Y-123110451D01*
X133491066Y-123118911D01*
X133491067Y-123118911D01*
X133491068Y-123118912D01*
X133555277Y-123145507D01*
X133569391Y-123159621D01*
X133596071Y-123162403D01*
X133596072Y-123162404D01*
X133596069Y-123162404D01*
X133609434Y-123163798D01*
X133855098Y-123163798D01*
X133855098Y-122483057D01*
X133873404Y-122438863D01*
X133917598Y-122420557D01*
X133933770Y-122422686D01*
X133953594Y-122427998D01*
X134060601Y-122427998D01*
X134060602Y-122427998D01*
X134080421Y-122422687D01*
X134127846Y-122428929D01*
X134156968Y-122466879D01*
X134159098Y-122483057D01*
X134159098Y-123163798D01*
X134404765Y-123163798D01*
X134404770Y-123163798D01*
X134404770Y-123163797D01*
X134404786Y-123163796D01*
X134418123Y-123162404D01*
X134418130Y-123162402D01*
X134523123Y-123118913D01*
X134523130Y-123118908D01*
X134526252Y-123116376D01*
X134533519Y-123110483D01*
X134533527Y-123110475D01*
X134533553Y-123110455D01*
X134533563Y-123110446D01*
X135095940Y-122548070D01*
X135095951Y-122548058D01*
X135104411Y-122537629D01*
X135147904Y-122432624D01*
X135149298Y-122419261D01*
X135149298Y-122173598D01*
X134468558Y-122173598D01*
X134424364Y-122155292D01*
X134406058Y-122111098D01*
X134408188Y-122094922D01*
X134413496Y-122075108D01*
X134413498Y-122075100D01*
X134413498Y-121968095D01*
X134413496Y-121968087D01*
X134408188Y-121948274D01*
X134414431Y-121900848D01*
X134452382Y-121871728D01*
X134468558Y-121869598D01*
X135149298Y-121869598D01*
X135149298Y-121623924D01*
X135148387Y-121615198D01*
X135147904Y-121610572D01*
X135147902Y-121610565D01*
X135104413Y-121505572D01*
X135104408Y-121505565D01*
X135104406Y-121505562D01*
X135104392Y-121505544D01*
X135095983Y-121495175D01*
X135095958Y-121495146D01*
X135095955Y-121495142D01*
X135095946Y-121495132D01*
X134533570Y-120932755D01*
X134533558Y-120932744D01*
X134523129Y-120924284D01*
X134523127Y-120924283D01*
X134523126Y-120924282D01*
X134458916Y-120897687D01*
X134444800Y-120883571D01*
X134418126Y-120880791D01*
X134404762Y-120879398D01*
X134404760Y-120879398D01*
X134159098Y-120879398D01*
X134159098Y-121560137D01*
X134140792Y-121604331D01*
X134096598Y-121622637D01*
X134080424Y-121620508D01*
X134060606Y-121615198D01*
X134060602Y-121615198D01*
X133953594Y-121615198D01*
X133953589Y-121615198D01*
X133933772Y-121620508D01*
X133886346Y-121614262D01*
X133857227Y-121576311D01*
X133855098Y-121560137D01*
X133855098Y-120879398D01*
X133609431Y-120879398D01*
X133609427Y-120879398D01*
X133609401Y-120879399D01*
X133596071Y-120880791D01*
X133596069Y-120880791D01*
X133596064Y-120880792D01*
X133596055Y-120880796D01*
X133491076Y-120924280D01*
X133491067Y-120924285D01*
X133491062Y-120924288D01*
X133491044Y-120924302D01*
X133480675Y-120932711D01*
X133480646Y-120932736D01*
X133480627Y-120932753D01*
X133480624Y-120932756D01*
X132935277Y-121478102D01*
X132915001Y-121491650D01*
X132906211Y-121495291D01*
X132858377Y-121495292D01*
X132858376Y-121495291D01*
X132858376Y-121495292D01*
X132858375Y-121495291D01*
X132849586Y-121491651D01*
X132829308Y-121478102D01*
X132435569Y-121084364D01*
X132435568Y-121084363D01*
X132435561Y-121084357D01*
X132414276Y-121070134D01*
X132414272Y-121070132D01*
X132404040Y-121063295D01*
X132404039Y-121063294D01*
X132404038Y-121063294D01*
X132391962Y-121060892D01*
X132366855Y-121055898D01*
X132366853Y-121055898D01*
X132366851Y-121055898D01*
X131647350Y-121055898D01*
X131647349Y-121055898D01*
X131647343Y-121055898D01*
X131610158Y-121063294D01*
X131610145Y-121063301D01*
X131578646Y-121084348D01*
X131578626Y-121084363D01*
X131069864Y-121593125D01*
X131048794Y-121624657D01*
X131048793Y-121624659D01*
X131041398Y-121661839D01*
X130086598Y-121661839D01*
X130086598Y-119684242D01*
X130091355Y-119660326D01*
X130093300Y-119655631D01*
X130098123Y-119643986D01*
X130098125Y-119643985D01*
X130124625Y-119613772D01*
X130127255Y-119612254D01*
X130216754Y-119522755D01*
X130280039Y-119413141D01*
X130312798Y-119290883D01*
X130312798Y-119164313D01*
X130280039Y-119042055D01*
X130216754Y-118932441D01*
X130216740Y-118932427D01*
X130127260Y-118842946D01*
X130127251Y-118842939D01*
X130050206Y-118798456D01*
X130050206Y-118798457D01*
X130017641Y-118779656D01*
X130017612Y-118779647D01*
X129895399Y-118746901D01*
X129895390Y-118746899D01*
X129895389Y-118746899D01*
X129895384Y-118746898D01*
X129895383Y-118746898D01*
X129768810Y-118746898D01*
X129768800Y-118746900D01*
X129646582Y-118779647D01*
X129646555Y-118779655D01*
X129569505Y-118824141D01*
X129569504Y-118824140D01*
X129536937Y-118842944D01*
X129536935Y-118842945D01*
X129447454Y-118932427D01*
X129447446Y-118932436D01*
X129447443Y-118932440D01*
X129384159Y-119042048D01*
X129384155Y-119042055D01*
X129384147Y-119042082D01*
X129351398Y-119164306D01*
X129351398Y-119290888D01*
X129384147Y-119413112D01*
X129384156Y-119413140D01*
X129384156Y-119413141D01*
X129402956Y-119445705D01*
X129447439Y-119522751D01*
X129447446Y-119522760D01*
X129493765Y-119569078D01*
X129536941Y-119612254D01*
X129536944Y-119612256D01*
X129540191Y-119614747D01*
X129539840Y-119615203D01*
X129553911Y-119627542D01*
X129564679Y-119641574D01*
X129577598Y-119679624D01*
X129577598Y-122082868D01*
X129572833Y-122106803D01*
X129571564Y-122109864D01*
X129537729Y-122143679D01*
X129489894Y-122143664D01*
X129458045Y-122114111D01*
X129457797Y-122113622D01*
X129451808Y-122094933D01*
X129443180Y-122038761D01*
X129443180Y-122038760D01*
X129429058Y-121946818D01*
X129428897Y-121945705D01*
X129428755Y-121944655D01*
X129428630Y-121943670D01*
X129419808Y-121869597D01*
X129395064Y-121661839D01*
X129329682Y-121112864D01*
X129329571Y-121111863D01*
X129329453Y-121110706D01*
X129329362Y-121109719D01*
X129327211Y-121084365D01*
X129320597Y-121006435D01*
X129258594Y-120275919D01*
X129258524Y-120275001D01*
X129258444Y-120273809D01*
X129258396Y-120272989D01*
X129215894Y-119437118D01*
X129215860Y-119436314D01*
X129215814Y-119434963D01*
X129215794Y-119434155D01*
X129201611Y-118596701D01*
X129201605Y-118596184D01*
X129201600Y-118595588D01*
X129201598Y-118595064D01*
X129201598Y-115929677D01*
X135753167Y-115929677D01*
X135753167Y-116077517D01*
X135780807Y-116216471D01*
X135780807Y-116216472D01*
X135782008Y-116222512D01*
X135838578Y-116359081D01*
X135838586Y-116359099D01*
X135920714Y-116482012D01*
X135920715Y-116482013D01*
X135920716Y-116482014D01*
X136025251Y-116586549D01*
X136148172Y-116668682D01*
X136284754Y-116725256D01*
X136429749Y-116754098D01*
X136577585Y-116754098D01*
X136722580Y-116725256D01*
X136859162Y-116668682D01*
X136982083Y-116586549D01*
X137086618Y-116482014D01*
X137168751Y-116359093D01*
X137225325Y-116222511D01*
X137254167Y-116077516D01*
X137254167Y-115929680D01*
X137225325Y-115784685D01*
X137168751Y-115648103D01*
X137086618Y-115525182D01*
X136982083Y-115420647D01*
X136982082Y-115420646D01*
X136875067Y-115349141D01*
X136859166Y-115338516D01*
X136859164Y-115338515D01*
X136859162Y-115338514D01*
X136722578Y-115281939D01*
X136722575Y-115281938D01*
X136722572Y-115281937D01*
X136577586Y-115253098D01*
X136577585Y-115253098D01*
X136429749Y-115253098D01*
X136429747Y-115253098D01*
X136290793Y-115280738D01*
X136290791Y-115280738D01*
X136284751Y-115281939D01*
X136148182Y-115338509D01*
X136148164Y-115338517D01*
X136025251Y-115420645D01*
X135920714Y-115525182D01*
X135838586Y-115648095D01*
X135838578Y-115648113D01*
X135782009Y-115784679D01*
X135782009Y-115784682D01*
X135782008Y-115784685D01*
X135782008Y-115784686D01*
X135753167Y-115929677D01*
X129201598Y-115929677D01*
X129201598Y-111279029D01*
X129206356Y-111255111D01*
X129209997Y-111246321D01*
X129243820Y-111212497D01*
X129252611Y-111208855D01*
X129276529Y-111204098D01*
X135540978Y-111204098D01*
X135540980Y-111204098D01*
X135614672Y-111173574D01*
X135671074Y-111117172D01*
X135701598Y-111043480D01*
X135701598Y-110666529D01*
X135706356Y-110642611D01*
X135706359Y-110642605D01*
X135709997Y-110633820D01*
X135743820Y-110599997D01*
X135752611Y-110596355D01*
X135776529Y-110591598D01*
X137003256Y-110591598D01*
X137027166Y-110596353D01*
G37*
%TD.AperFunction*%
%TA.AperFunction,Conductor*%
G36*
X143682278Y-124058855D02*
G01*
X143703501Y-124067646D01*
X143723776Y-124081194D01*
X144469195Y-124826613D01*
X144482741Y-124846884D01*
X144485318Y-124853104D01*
X144485319Y-124900939D01*
X144451499Y-124934763D01*
X144451497Y-124934763D01*
X144451496Y-124934764D01*
X144451495Y-124934765D01*
X144451494Y-124934765D01*
X144445284Y-124937338D01*
X144421361Y-124942098D01*
X142420835Y-124942098D01*
X142396919Y-124937340D01*
X142390697Y-124934763D01*
X142356876Y-124900939D01*
X142356876Y-124853107D01*
X142359456Y-124846881D01*
X142372997Y-124826616D01*
X143118422Y-124081191D01*
X143138690Y-124067648D01*
X143159921Y-124058854D01*
X143183835Y-124054098D01*
X143658361Y-124054098D01*
X143682278Y-124058855D01*
G37*
%TD.AperFunction*%
%TD*%
%TA.AperFunction,Conductor*%
%TO.N,GND*%
G36*
X144924792Y-104512174D02*
G01*
X144934721Y-104525113D01*
X144941442Y-104536755D01*
X145030941Y-104626254D01*
X145125249Y-104680702D01*
X145140555Y-104689539D01*
X145140558Y-104689540D01*
X145215374Y-104709586D01*
X145262813Y-104722298D01*
X145262814Y-104722298D01*
X145389382Y-104722298D01*
X145389383Y-104722298D01*
X145511641Y-104689539D01*
X145621255Y-104626254D01*
X145710754Y-104536755D01*
X145714572Y-104530141D01*
X145752520Y-104501021D01*
X145799946Y-104507263D01*
X145829068Y-104545213D01*
X145831198Y-104561391D01*
X145831198Y-105712575D01*
X145831198Y-105813821D01*
X145856718Y-105875433D01*
X145869942Y-105907359D01*
X145869943Y-105907361D01*
X146069292Y-106106709D01*
X146087598Y-106150903D01*
X146087598Y-106857975D01*
X146087598Y-106959221D01*
X146114993Y-107025360D01*
X146126342Y-107052759D01*
X146126344Y-107052762D01*
X149304486Y-110230904D01*
X149322792Y-110275098D01*
X149304486Y-110319292D01*
X149260292Y-110337598D01*
X144880598Y-110337598D01*
X144836404Y-110319292D01*
X144818098Y-110275098D01*
X144818098Y-108317798D01*
X144836404Y-108273604D01*
X144880598Y-108255298D01*
X145205097Y-108255298D01*
X145249291Y-108273604D01*
X145284941Y-108309254D01*
X145394555Y-108372539D01*
X145394558Y-108372540D01*
X145469374Y-108392586D01*
X145516813Y-108405298D01*
X145516814Y-108405298D01*
X145643382Y-108405298D01*
X145643383Y-108405298D01*
X145765641Y-108372539D01*
X145875255Y-108309254D01*
X145964754Y-108219755D01*
X146028039Y-108110141D01*
X146060798Y-107987883D01*
X146060798Y-107861313D01*
X146028039Y-107739055D01*
X145964754Y-107629441D01*
X145875255Y-107539942D01*
X145779730Y-107484791D01*
X145765640Y-107476656D01*
X145765637Y-107476655D01*
X145643389Y-107443899D01*
X145643384Y-107443898D01*
X145643383Y-107443898D01*
X145516813Y-107443898D01*
X145516812Y-107443898D01*
X145516806Y-107443899D01*
X145394558Y-107476655D01*
X145394555Y-107476656D01*
X145317505Y-107521141D01*
X145284941Y-107539942D01*
X145284940Y-107539943D01*
X145284936Y-107539946D01*
X145249291Y-107575592D01*
X145205097Y-107593898D01*
X144880598Y-107593898D01*
X144836404Y-107575592D01*
X144818098Y-107531398D01*
X144818098Y-104556368D01*
X144836404Y-104512174D01*
X144880598Y-104493868D01*
X144924792Y-104512174D01*
G37*
%TD.AperFunction*%
%TA.AperFunction,Conductor*%
G36*
X153775235Y-81907904D02*
G01*
X153793541Y-81952098D01*
X153775235Y-81996292D01*
X153684441Y-82087085D01*
X153684434Y-82087094D01*
X153617862Y-82202399D01*
X153617858Y-82202408D01*
X153583399Y-82331014D01*
X153583398Y-82331022D01*
X153583398Y-82464173D01*
X153583399Y-82464181D01*
X153617858Y-82592787D01*
X153617862Y-82592796D01*
X153684434Y-82708101D01*
X153684441Y-82708110D01*
X153778590Y-82802258D01*
X153778591Y-82802259D01*
X153803348Y-82816552D01*
X153832468Y-82854502D01*
X153834598Y-82870679D01*
X153834598Y-83972220D01*
X153873342Y-84065759D01*
X153873343Y-84065761D01*
X154197292Y-84389709D01*
X154215598Y-84433903D01*
X154215598Y-84591517D01*
X154197292Y-84635711D01*
X154184351Y-84645641D01*
X154164582Y-84657055D01*
X154159589Y-84659938D01*
X154159585Y-84659941D01*
X154065441Y-84754085D01*
X154065434Y-84754094D01*
X153998862Y-84869399D01*
X153998858Y-84869408D01*
X153964399Y-84998014D01*
X153964398Y-84998022D01*
X153964398Y-85131173D01*
X153964399Y-85131181D01*
X153998858Y-85259787D01*
X153998862Y-85259796D01*
X154065434Y-85375101D01*
X154065441Y-85375110D01*
X154159585Y-85469254D01*
X154159594Y-85469261D01*
X154274899Y-85535833D01*
X154274902Y-85535834D01*
X154274905Y-85535836D01*
X154274906Y-85535836D01*
X154274908Y-85535837D01*
X154353610Y-85556924D01*
X154403521Y-85570298D01*
X154403522Y-85570298D01*
X154536674Y-85570298D01*
X154536675Y-85570298D01*
X154665291Y-85535836D01*
X154780605Y-85469259D01*
X154874759Y-85375105D01*
X154941336Y-85259791D01*
X154975798Y-85131175D01*
X154975798Y-84998021D01*
X154960588Y-84941254D01*
X154941337Y-84869408D01*
X154941333Y-84869399D01*
X154874761Y-84754094D01*
X154874754Y-84754085D01*
X154780610Y-84659941D01*
X154780606Y-84659938D01*
X154780605Y-84659937D01*
X154755847Y-84645642D01*
X154726728Y-84607693D01*
X154724598Y-84591517D01*
X154724598Y-84251977D01*
X154724598Y-84251975D01*
X154685853Y-84158435D01*
X154660451Y-84133033D01*
X154610706Y-84083287D01*
X154610691Y-84083274D01*
X154361904Y-83834486D01*
X154343598Y-83790292D01*
X154343598Y-82870679D01*
X154361904Y-82826485D01*
X154374848Y-82816552D01*
X154399605Y-82802259D01*
X154493759Y-82708105D01*
X154560336Y-82592791D01*
X154594798Y-82464175D01*
X154594798Y-82331021D01*
X154560336Y-82202405D01*
X154559251Y-82200526D01*
X154493761Y-82087094D01*
X154493754Y-82087085D01*
X154402961Y-81996292D01*
X154384655Y-81952098D01*
X154402961Y-81907904D01*
X154447155Y-81889598D01*
X163297598Y-81889598D01*
X163341792Y-81907904D01*
X163360098Y-81952098D01*
X163360098Y-87669098D01*
X163341792Y-87713292D01*
X163297598Y-87731598D01*
X161419313Y-87731598D01*
X161375119Y-87713292D01*
X161356813Y-87669098D01*
X161365187Y-87637848D01*
X161417009Y-87548089D01*
X161418336Y-87545791D01*
X161452798Y-87417175D01*
X161452798Y-87284021D01*
X161418336Y-87155405D01*
X161417008Y-87153105D01*
X161351761Y-87040094D01*
X161351754Y-87040085D01*
X161257610Y-86945941D01*
X161257601Y-86945934D01*
X161142296Y-86879362D01*
X161142287Y-86879358D01*
X161013681Y-86844899D01*
X161013676Y-86844898D01*
X161013675Y-86844898D01*
X160880521Y-86844898D01*
X160880520Y-86844898D01*
X160880514Y-86844899D01*
X160751908Y-86879358D01*
X160751899Y-86879362D01*
X160636594Y-86945934D01*
X160636585Y-86945941D01*
X160542441Y-87040085D01*
X160542434Y-87040094D01*
X160475862Y-87155399D01*
X160475858Y-87155408D01*
X160441399Y-87284014D01*
X160441398Y-87284022D01*
X160441398Y-87417177D01*
X160448796Y-87444788D01*
X160442551Y-87492214D01*
X160432619Y-87505157D01*
X160224486Y-87713292D01*
X160180292Y-87731598D01*
X157137098Y-87731598D01*
X157137098Y-101132827D01*
X157118792Y-101177021D01*
X157074598Y-101195327D01*
X157030404Y-101177021D01*
X157020472Y-101164077D01*
X157013756Y-101152445D01*
X157013754Y-101152441D01*
X156924255Y-101062942D01*
X156847205Y-101018457D01*
X156814640Y-100999656D01*
X156814637Y-100999655D01*
X156692389Y-100966899D01*
X156692384Y-100966898D01*
X156692383Y-100966898D01*
X156565813Y-100966898D01*
X156565812Y-100966898D01*
X156565806Y-100966899D01*
X156443558Y-100999655D01*
X156443555Y-100999657D01*
X156357153Y-101049541D01*
X156339948Y-101059474D01*
X156323771Y-101061603D01*
X156308698Y-101067847D01*
X156300894Y-101064614D01*
X156292521Y-101065717D01*
X156279576Y-101055784D01*
X156264504Y-101049541D01*
X156261272Y-101041739D01*
X156254571Y-101036597D01*
X156246198Y-101005347D01*
X156246198Y-101002811D01*
X156264504Y-100958617D01*
X156277449Y-100948684D01*
X156286855Y-100943254D01*
X156376354Y-100853755D01*
X156439639Y-100744141D01*
X156472398Y-100621883D01*
X156472398Y-100495313D01*
X156439639Y-100373055D01*
X156376354Y-100263441D01*
X156286855Y-100173942D01*
X156191330Y-100118791D01*
X156177240Y-100110656D01*
X156177237Y-100110655D01*
X156054989Y-100077899D01*
X156054984Y-100077898D01*
X156054983Y-100077898D01*
X155928413Y-100077898D01*
X155928412Y-100077898D01*
X155928406Y-100077899D01*
X155806158Y-100110655D01*
X155806155Y-100110656D01*
X155729105Y-100155141D01*
X155696541Y-100173942D01*
X155696540Y-100173943D01*
X155696536Y-100173946D01*
X155607046Y-100263436D01*
X155607043Y-100263440D01*
X155543756Y-100373055D01*
X155543755Y-100373058D01*
X155510999Y-100495306D01*
X155510998Y-100495314D01*
X155510998Y-100621881D01*
X155510999Y-100621889D01*
X155543755Y-100744137D01*
X155543756Y-100744140D01*
X155552071Y-100758541D01*
X155607042Y-100853755D01*
X155607046Y-100853759D01*
X155696541Y-100943254D01*
X155698553Y-100944798D01*
X155699192Y-100945905D01*
X155699438Y-100946151D01*
X155699372Y-100946216D01*
X155722470Y-100986225D01*
X155710089Y-101032430D01*
X155668662Y-101056347D01*
X155629256Y-101048509D01*
X155579495Y-101019780D01*
X155544640Y-100999656D01*
X155544637Y-100999655D01*
X155422389Y-100966899D01*
X155422384Y-100966898D01*
X155422383Y-100966898D01*
X155295813Y-100966898D01*
X155295812Y-100966898D01*
X155295806Y-100966899D01*
X155173558Y-100999655D01*
X155173555Y-100999656D01*
X155128904Y-101025436D01*
X155072346Y-101058089D01*
X155024922Y-101064332D01*
X154986971Y-101035212D01*
X154978598Y-101003962D01*
X154978598Y-100493426D01*
X154996904Y-100449232D01*
X155009849Y-100439299D01*
X155011718Y-100438219D01*
X155016855Y-100435254D01*
X155106354Y-100345755D01*
X155169639Y-100236141D01*
X155202398Y-100113883D01*
X155202398Y-99987313D01*
X155169639Y-99865055D01*
X155106354Y-99755441D01*
X155016855Y-99665942D01*
X154939805Y-99621457D01*
X154907240Y-99602656D01*
X154907237Y-99602655D01*
X154784989Y-99569899D01*
X154784984Y-99569898D01*
X154784983Y-99569898D01*
X154658413Y-99569898D01*
X154658412Y-99569898D01*
X154658406Y-99569899D01*
X154536158Y-99602655D01*
X154536155Y-99602656D01*
X154491495Y-99628441D01*
X154426541Y-99665942D01*
X154426540Y-99665943D01*
X154426536Y-99665946D01*
X154337046Y-99755436D01*
X154337043Y-99755440D01*
X154273756Y-99865055D01*
X154273755Y-99865058D01*
X154240999Y-99987306D01*
X154240998Y-99987314D01*
X154240998Y-100113884D01*
X154246108Y-100132955D01*
X154239863Y-100180381D01*
X154201912Y-100209501D01*
X154169561Y-100209500D01*
X154152389Y-100204899D01*
X154152384Y-100204898D01*
X154152383Y-100204898D01*
X154025813Y-100204898D01*
X154025812Y-100204898D01*
X154025806Y-100204899D01*
X153903558Y-100237655D01*
X153903555Y-100237656D01*
X153858895Y-100263441D01*
X153793941Y-100300942D01*
X153793940Y-100300943D01*
X153793936Y-100300946D01*
X153704446Y-100390436D01*
X153704443Y-100390440D01*
X153641156Y-100500055D01*
X153641155Y-100500058D01*
X153608399Y-100622306D01*
X153608398Y-100622314D01*
X153608398Y-100748881D01*
X153608399Y-100748889D01*
X153613693Y-100768647D01*
X153607450Y-100816073D01*
X153569499Y-100845193D01*
X153537147Y-100845193D01*
X153517389Y-100839899D01*
X153517384Y-100839898D01*
X153517383Y-100839898D01*
X153390813Y-100839898D01*
X153390812Y-100839898D01*
X153390806Y-100839899D01*
X153268558Y-100872655D01*
X153268555Y-100872656D01*
X153223895Y-100898441D01*
X153158941Y-100935942D01*
X153158940Y-100935943D01*
X153158936Y-100935946D01*
X153069446Y-101025436D01*
X153069443Y-101025440D01*
X153069442Y-101025441D01*
X153060004Y-101041788D01*
X153006156Y-101135055D01*
X153006155Y-101135058D01*
X152973399Y-101257306D01*
X152973398Y-101257314D01*
X152973398Y-101383881D01*
X152973399Y-101383889D01*
X152978693Y-101403647D01*
X152972450Y-101451073D01*
X152934499Y-101480193D01*
X152902147Y-101480193D01*
X152882389Y-101474899D01*
X152882384Y-101474898D01*
X152882383Y-101474898D01*
X152755813Y-101474898D01*
X152755812Y-101474898D01*
X152755806Y-101474899D01*
X152689730Y-101492604D01*
X152642304Y-101486361D01*
X152613184Y-101448410D01*
X152619426Y-101400986D01*
X152632039Y-101379141D01*
X152664798Y-101256883D01*
X152664798Y-101130313D01*
X152644828Y-101055784D01*
X152632040Y-101008058D01*
X152632039Y-101008055D01*
X152626313Y-100998137D01*
X152568754Y-100898441D01*
X152479255Y-100808942D01*
X152391957Y-100758541D01*
X152369640Y-100745656D01*
X152369637Y-100745655D01*
X152247389Y-100712899D01*
X152247384Y-100712898D01*
X152247383Y-100712898D01*
X152120813Y-100712898D01*
X152120812Y-100712898D01*
X152120806Y-100712899D01*
X151998558Y-100745655D01*
X151998555Y-100745656D01*
X151921505Y-100790141D01*
X151888941Y-100808942D01*
X151888940Y-100808943D01*
X151877335Y-100820548D01*
X151833140Y-100838852D01*
X151788946Y-100820545D01*
X151770642Y-100776350D01*
X151772771Y-100760179D01*
X151775798Y-100748883D01*
X151775798Y-100622313D01*
X151743039Y-100500055D01*
X151679754Y-100390441D01*
X151590255Y-100300942D01*
X151513205Y-100256457D01*
X151480640Y-100237656D01*
X151480637Y-100237655D01*
X151358389Y-100204899D01*
X151358384Y-100204898D01*
X151358383Y-100204898D01*
X151231813Y-100204898D01*
X151231812Y-100204898D01*
X151231806Y-100204899D01*
X151109558Y-100237655D01*
X151109555Y-100237656D01*
X151064895Y-100263441D01*
X150999941Y-100300942D01*
X150999940Y-100300943D01*
X150999936Y-100300946D01*
X150910446Y-100390436D01*
X150910443Y-100390440D01*
X150847156Y-100500055D01*
X150847155Y-100500058D01*
X150814399Y-100622306D01*
X150814398Y-100622314D01*
X150814398Y-100748881D01*
X150814399Y-100748889D01*
X150847155Y-100871137D01*
X150847156Y-100871140D01*
X150849898Y-100875889D01*
X150910442Y-100980755D01*
X150999941Y-101070254D01*
X151009345Y-101075683D01*
X151014487Y-101082384D01*
X151022292Y-101085617D01*
X151028535Y-101100689D01*
X151038467Y-101113631D01*
X151040598Y-101129811D01*
X151040598Y-101189292D01*
X151022292Y-101233486D01*
X150461098Y-101794679D01*
X150416904Y-101812985D01*
X150372710Y-101794679D01*
X150354404Y-101750485D01*
X150356534Y-101734308D01*
X150358030Y-101728727D01*
X150381616Y-101640702D01*
X150381616Y-101514132D01*
X150348857Y-101391874D01*
X150285572Y-101282260D01*
X150196073Y-101192761D01*
X150114881Y-101145885D01*
X150086458Y-101129475D01*
X150086455Y-101129474D01*
X149964207Y-101096718D01*
X149964202Y-101096717D01*
X149964201Y-101096717D01*
X149837631Y-101096717D01*
X149837630Y-101096717D01*
X149837624Y-101096718D01*
X149715376Y-101129474D01*
X149715373Y-101129475D01*
X149638323Y-101173960D01*
X149605759Y-101192761D01*
X149605758Y-101192762D01*
X149605754Y-101192765D01*
X149516258Y-101282262D01*
X149516257Y-101282262D01*
X149510723Y-101291848D01*
X149472772Y-101320967D01*
X149468795Y-101321894D01*
X149463660Y-101322915D01*
X149370117Y-101361661D01*
X149370114Y-101361663D01*
X149298523Y-101433255D01*
X148565756Y-102166020D01*
X148521562Y-102184326D01*
X148490313Y-102175953D01*
X148432643Y-102142658D01*
X148432637Y-102142655D01*
X148310389Y-102109899D01*
X148310384Y-102109898D01*
X148310383Y-102109898D01*
X148183813Y-102109898D01*
X148183812Y-102109898D01*
X148183806Y-102109899D01*
X148061558Y-102142655D01*
X148061555Y-102142656D01*
X148003884Y-102175953D01*
X147951941Y-102205942D01*
X147951940Y-102205943D01*
X147951936Y-102205946D01*
X147862446Y-102295436D01*
X147862443Y-102295440D01*
X147799156Y-102405055D01*
X147799155Y-102405058D01*
X147766399Y-102527306D01*
X147766398Y-102527314D01*
X147766398Y-102653881D01*
X147766399Y-102653889D01*
X147771693Y-102673647D01*
X147765450Y-102721073D01*
X147727499Y-102750193D01*
X147695147Y-102750193D01*
X147675389Y-102744899D01*
X147675384Y-102744898D01*
X147675383Y-102744898D01*
X147548813Y-102744898D01*
X147548812Y-102744898D01*
X147548806Y-102744899D01*
X147426558Y-102777655D01*
X147426555Y-102777656D01*
X147357113Y-102817749D01*
X147316941Y-102840942D01*
X147316940Y-102840943D01*
X147316936Y-102840946D01*
X147227446Y-102930436D01*
X147227443Y-102930440D01*
X147164156Y-103040055D01*
X147164155Y-103040058D01*
X147131399Y-103162306D01*
X147131398Y-103162314D01*
X147131398Y-103288881D01*
X147131399Y-103288889D01*
X147164155Y-103411137D01*
X147164156Y-103411140D01*
X147164157Y-103411141D01*
X147227442Y-103520755D01*
X147316941Y-103610254D01*
X147426555Y-103673539D01*
X147426558Y-103673540D01*
X147501374Y-103693586D01*
X147548813Y-103706298D01*
X147548814Y-103706298D01*
X147675382Y-103706298D01*
X147675383Y-103706298D01*
X147797641Y-103673539D01*
X147907255Y-103610254D01*
X147996754Y-103520755D01*
X148002185Y-103511347D01*
X148040136Y-103482228D01*
X148056312Y-103480098D01*
X148805719Y-103480098D01*
X148805721Y-103480098D01*
X148899261Y-103441353D01*
X149604210Y-102736404D01*
X149648404Y-102718098D01*
X150202719Y-102718098D01*
X150202721Y-102718098D01*
X150296261Y-102679353D01*
X151430469Y-101545142D01*
X151430472Y-101545141D01*
X151439260Y-101536353D01*
X151439261Y-101536353D01*
X151510853Y-101464761D01*
X151549598Y-101371221D01*
X151549598Y-101129811D01*
X151567904Y-101085617D01*
X151573227Y-101080869D01*
X151576841Y-101077997D01*
X151590255Y-101070254D01*
X151604392Y-101056116D01*
X151607182Y-101053901D01*
X151627003Y-101048233D01*
X151646051Y-101040343D01*
X151649541Y-101041788D01*
X151653174Y-101040750D01*
X151671196Y-101050757D01*
X151690246Y-101058647D01*
X151691692Y-101062138D01*
X151694995Y-101063972D01*
X151700662Y-101083793D01*
X151708553Y-101102841D01*
X151707782Y-101108693D01*
X151708146Y-101109964D01*
X151707450Y-101111216D01*
X151706424Y-101119017D01*
X151703398Y-101130308D01*
X151703398Y-101256881D01*
X151703399Y-101256889D01*
X151736155Y-101379137D01*
X151736156Y-101379140D01*
X151738898Y-101383889D01*
X151799442Y-101488755D01*
X151888941Y-101578254D01*
X151898345Y-101583683D01*
X151927467Y-101621631D01*
X151929598Y-101637811D01*
X151929598Y-102714146D01*
X151911292Y-102758340D01*
X151883276Y-102774516D01*
X151871556Y-102777656D01*
X151871555Y-102777656D01*
X151802113Y-102817749D01*
X151761941Y-102840942D01*
X151761940Y-102840943D01*
X151761936Y-102840946D01*
X151672446Y-102930436D01*
X151672443Y-102930440D01*
X151609156Y-103040055D01*
X151609155Y-103040058D01*
X151576399Y-103162306D01*
X151576398Y-103162314D01*
X151576398Y-103288884D01*
X151579209Y-103299375D01*
X151572964Y-103346801D01*
X151563032Y-103359744D01*
X150291386Y-104631392D01*
X150247192Y-104649698D01*
X149294712Y-104649698D01*
X149250518Y-104631392D01*
X149240585Y-104618448D01*
X149235153Y-104609040D01*
X149145659Y-104519546D01*
X149145655Y-104519542D01*
X149068605Y-104475057D01*
X149036040Y-104456256D01*
X149036037Y-104456255D01*
X148913789Y-104423499D01*
X148913784Y-104423498D01*
X148913783Y-104423498D01*
X148787213Y-104423498D01*
X148787212Y-104423498D01*
X148787206Y-104423499D01*
X148664958Y-104456255D01*
X148664955Y-104456256D01*
X148599810Y-104493868D01*
X148555341Y-104519542D01*
X148555340Y-104519543D01*
X148555336Y-104519546D01*
X148465846Y-104609036D01*
X148465843Y-104609040D01*
X148465842Y-104609041D01*
X148455904Y-104626254D01*
X148402556Y-104718655D01*
X148402555Y-104718658D01*
X148369799Y-104840906D01*
X148369798Y-104840914D01*
X148369798Y-104967481D01*
X148369799Y-104967489D01*
X148402555Y-105089737D01*
X148402556Y-105089740D01*
X148402557Y-105089741D01*
X148465842Y-105199355D01*
X148555341Y-105288854D01*
X148633494Y-105333975D01*
X148664955Y-105352139D01*
X148664958Y-105352140D01*
X148739774Y-105372186D01*
X148787213Y-105384898D01*
X148787214Y-105384898D01*
X148913782Y-105384898D01*
X148913783Y-105384898D01*
X149036041Y-105352139D01*
X149145655Y-105288854D01*
X149235154Y-105199355D01*
X149240585Y-105189947D01*
X149278536Y-105160828D01*
X149294712Y-105158698D01*
X150429119Y-105158698D01*
X150429121Y-105158698D01*
X150522661Y-105119953D01*
X151922950Y-103719662D01*
X151967143Y-103701357D01*
X151983320Y-103703487D01*
X151993807Y-103706297D01*
X151993813Y-103706298D01*
X152120382Y-103706298D01*
X152120383Y-103706298D01*
X152242641Y-103673539D01*
X152352255Y-103610254D01*
X152441754Y-103520755D01*
X152505039Y-103411141D01*
X152537798Y-103288883D01*
X152537798Y-103162313D01*
X152505039Y-103040055D01*
X152446970Y-102939475D01*
X152438598Y-102908229D01*
X152438598Y-102399234D01*
X152444841Y-102384160D01*
X152446970Y-102367987D01*
X152453671Y-102362844D01*
X152456904Y-102355040D01*
X152471976Y-102348796D01*
X152484918Y-102338865D01*
X152493292Y-102339967D01*
X152501098Y-102336734D01*
X152532345Y-102345106D01*
X152533687Y-102345881D01*
X152534791Y-102346518D01*
X152561802Y-102381716D01*
X152562243Y-102381534D01*
X152562923Y-102383176D01*
X152563913Y-102384466D01*
X152564501Y-102386986D01*
X152603342Y-102480759D01*
X152603344Y-102480762D01*
X155754032Y-105631449D01*
X155772338Y-105675643D01*
X155770210Y-105691814D01*
X155767398Y-105702308D01*
X155767398Y-105828881D01*
X155767399Y-105828889D01*
X155800155Y-105951137D01*
X155800156Y-105951140D01*
X155818957Y-105983705D01*
X155863442Y-106060755D01*
X155952941Y-106150254D01*
X156062555Y-106213539D01*
X156062558Y-106213540D01*
X156137374Y-106233586D01*
X156184813Y-106246298D01*
X156184814Y-106246298D01*
X156311382Y-106246298D01*
X156311383Y-106246298D01*
X156433641Y-106213539D01*
X156543255Y-106150254D01*
X156632754Y-106060755D01*
X156638972Y-106049983D01*
X156676920Y-106020864D01*
X156724347Y-106027107D01*
X156753468Y-106065056D01*
X156755598Y-106081234D01*
X156755598Y-107354098D01*
X156737292Y-107398292D01*
X156693098Y-107416598D01*
X153200098Y-107416598D01*
X153200098Y-109951792D01*
X153181792Y-109995986D01*
X152858486Y-110319292D01*
X152814292Y-110337598D01*
X150156904Y-110337598D01*
X150112710Y-110319292D01*
X146614904Y-106821486D01*
X146596598Y-106777292D01*
X146596598Y-105968977D01*
X146596598Y-105968975D01*
X146557853Y-105875435D01*
X146557851Y-105875433D01*
X146482706Y-105800287D01*
X146482691Y-105800274D01*
X146358504Y-105676086D01*
X146340198Y-105631892D01*
X146340198Y-103849365D01*
X146340199Y-103849356D01*
X146340199Y-103740838D01*
X146340198Y-103740835D01*
X146301455Y-103647301D01*
X146301451Y-103647296D01*
X145471904Y-102817749D01*
X145453598Y-102773555D01*
X145453598Y-94012502D01*
X145453599Y-94012493D01*
X145453599Y-93903975D01*
X145453598Y-93903972D01*
X145414855Y-93810438D01*
X145414851Y-93810433D01*
X142296404Y-90691986D01*
X142278098Y-90647792D01*
X142278098Y-90528403D01*
X142296404Y-90484209D01*
X142340598Y-90465903D01*
X142384790Y-90484208D01*
X144433068Y-92532485D01*
X146551892Y-94651309D01*
X146570198Y-94695503D01*
X146570198Y-100386796D01*
X146551892Y-100430990D01*
X146465446Y-100517436D01*
X146465443Y-100517440D01*
X146402156Y-100627055D01*
X146402155Y-100627058D01*
X146369399Y-100749306D01*
X146369398Y-100749314D01*
X146369398Y-100875881D01*
X146369399Y-100875889D01*
X146402155Y-100998137D01*
X146402156Y-100998140D01*
X146417916Y-101025436D01*
X146465442Y-101107755D01*
X146554941Y-101197254D01*
X146646483Y-101250105D01*
X146664555Y-101260539D01*
X146664558Y-101260540D01*
X146682297Y-101265293D01*
X146786813Y-101293298D01*
X146786814Y-101293298D01*
X146913382Y-101293298D01*
X146913383Y-101293298D01*
X147035641Y-101260539D01*
X147145255Y-101197254D01*
X147234754Y-101107755D01*
X147298039Y-100998141D01*
X147330798Y-100875883D01*
X147330798Y-100749313D01*
X147298039Y-100627055D01*
X147234754Y-100517441D01*
X147210739Y-100493426D01*
X147148304Y-100430990D01*
X147129998Y-100386796D01*
X147129998Y-94731424D01*
X147148304Y-94687230D01*
X148157364Y-93678170D01*
X148201558Y-93659864D01*
X148245752Y-93678170D01*
X148610935Y-94043353D01*
X148610936Y-94043353D01*
X148610938Y-94043355D01*
X148704472Y-94082098D01*
X148704475Y-94082099D01*
X148812994Y-94082099D01*
X148813002Y-94082098D01*
X153009884Y-94082098D01*
X153054078Y-94100404D01*
X153064010Y-94113347D01*
X153069442Y-94122755D01*
X153158941Y-94212254D01*
X153254896Y-94267653D01*
X153268555Y-94275539D01*
X153268558Y-94275540D01*
X153272298Y-94276542D01*
X153390813Y-94308298D01*
X153390814Y-94308298D01*
X153412697Y-94308298D01*
X153456891Y-94326604D01*
X153475197Y-94370798D01*
X153456891Y-94414992D01*
X153450446Y-94421436D01*
X153450443Y-94421440D01*
X153450442Y-94421441D01*
X153431641Y-94454005D01*
X153387156Y-94531055D01*
X153387155Y-94531058D01*
X153354399Y-94653306D01*
X153354398Y-94653314D01*
X153354398Y-94779881D01*
X153354399Y-94779889D01*
X153387155Y-94902137D01*
X153387156Y-94902140D01*
X153387157Y-94902141D01*
X153450442Y-95011755D01*
X153539941Y-95101254D01*
X153644090Y-95161384D01*
X153649555Y-95164539D01*
X153649558Y-95164540D01*
X153698146Y-95177559D01*
X153771813Y-95197298D01*
X153771814Y-95197298D01*
X153898382Y-95197298D01*
X153898383Y-95197298D01*
X154020641Y-95164539D01*
X154130255Y-95101254D01*
X154219754Y-95011755D01*
X154283039Y-94902141D01*
X154315798Y-94779883D01*
X154315798Y-94653313D01*
X154312987Y-94642822D01*
X154314089Y-94634447D01*
X154310857Y-94626645D01*
X154317100Y-94611570D01*
X154319230Y-94595395D01*
X154329162Y-94582451D01*
X154351467Y-94560145D01*
X154351470Y-94560143D01*
X154362904Y-94548710D01*
X154407098Y-94530404D01*
X154451292Y-94548710D01*
X154469598Y-94592904D01*
X154469598Y-95161384D01*
X154451292Y-95205578D01*
X154438349Y-95215510D01*
X154428941Y-95220941D01*
X154428935Y-95220946D01*
X154339446Y-95310436D01*
X154339443Y-95310440D01*
X154339442Y-95310441D01*
X154320641Y-95343005D01*
X154276156Y-95420055D01*
X154276155Y-95420058D01*
X154243399Y-95542306D01*
X154243398Y-95542314D01*
X154243398Y-95668881D01*
X154243399Y-95668889D01*
X154276155Y-95791137D01*
X154276156Y-95791140D01*
X154276157Y-95791141D01*
X154339442Y-95900755D01*
X154428941Y-95990254D01*
X154538555Y-96053539D01*
X154538558Y-96053540D01*
X154561660Y-96059730D01*
X154660813Y-96086298D01*
X154660814Y-96086298D01*
X154787382Y-96086298D01*
X154787383Y-96086298D01*
X154909641Y-96053539D01*
X155019255Y-95990254D01*
X155108754Y-95900755D01*
X155172039Y-95791141D01*
X155204798Y-95668883D01*
X155204798Y-95542313D01*
X155172039Y-95420055D01*
X155108754Y-95310441D01*
X155108749Y-95310436D01*
X155019260Y-95220946D01*
X155019254Y-95220941D01*
X155009847Y-95215510D01*
X154980727Y-95177559D01*
X154978598Y-95161384D01*
X154978598Y-92747811D01*
X154996904Y-92703617D01*
X155009849Y-92693684D01*
X155019255Y-92688254D01*
X155108754Y-92598755D01*
X155172039Y-92489141D01*
X155204798Y-92366883D01*
X155204798Y-92240313D01*
X155176696Y-92135436D01*
X155172040Y-92118058D01*
X155172039Y-92118055D01*
X155165042Y-92105936D01*
X155108754Y-92008441D01*
X155019255Y-91918942D01*
X154921563Y-91862540D01*
X154909640Y-91855656D01*
X154909637Y-91855655D01*
X154787389Y-91822899D01*
X154787384Y-91822898D01*
X154787383Y-91822898D01*
X154660813Y-91822898D01*
X154660812Y-91822898D01*
X154660806Y-91822899D01*
X154538558Y-91855655D01*
X154538555Y-91855656D01*
X154469896Y-91895297D01*
X154428941Y-91918942D01*
X154428940Y-91918943D01*
X154428936Y-91918946D01*
X154339446Y-92008436D01*
X154339443Y-92008440D01*
X154276156Y-92118055D01*
X154276156Y-92118057D01*
X154253890Y-92201152D01*
X154224769Y-92239102D01*
X154177343Y-92245345D01*
X154139395Y-92216226D01*
X154092754Y-92135441D01*
X154003255Y-92045942D01*
X153913044Y-91993859D01*
X153893640Y-91982656D01*
X153893637Y-91982655D01*
X153771389Y-91949899D01*
X153771384Y-91949898D01*
X153771383Y-91949898D01*
X153644813Y-91949898D01*
X153644812Y-91949898D01*
X153644806Y-91949899D01*
X153576645Y-91968162D01*
X153576625Y-91968168D01*
X153522555Y-91982657D01*
X153503157Y-91993856D01*
X153503149Y-91993859D01*
X153412945Y-92045939D01*
X153412936Y-92045946D01*
X153323446Y-92135436D01*
X153323443Y-92135440D01*
X153260156Y-92245055D01*
X153260155Y-92245058D01*
X153227399Y-92367306D01*
X153227398Y-92367314D01*
X153227398Y-92493881D01*
X153227399Y-92493889D01*
X153260155Y-92616137D01*
X153260156Y-92616140D01*
X153260157Y-92616141D01*
X153323442Y-92725755D01*
X153412941Y-92815254D01*
X153504483Y-92868105D01*
X153522555Y-92878539D01*
X153522558Y-92878540D01*
X153597374Y-92898586D01*
X153644813Y-92911298D01*
X153644814Y-92911298D01*
X153771383Y-92911298D01*
X153781872Y-92908487D01*
X153829299Y-92914729D01*
X153842245Y-92924663D01*
X153943292Y-93025709D01*
X153961598Y-93069903D01*
X153961598Y-93511961D01*
X153943292Y-93556155D01*
X153899098Y-93574461D01*
X153854904Y-93556155D01*
X153844972Y-93543211D01*
X153838756Y-93532445D01*
X153838754Y-93532441D01*
X153749255Y-93442942D01*
X153672205Y-93398457D01*
X153639640Y-93379656D01*
X153639637Y-93379655D01*
X153517389Y-93346899D01*
X153517384Y-93346898D01*
X153517383Y-93346898D01*
X153390813Y-93346898D01*
X153390812Y-93346898D01*
X153390806Y-93346899D01*
X153268558Y-93379655D01*
X153268555Y-93379656D01*
X153191505Y-93424141D01*
X153158941Y-93442942D01*
X153158940Y-93442943D01*
X153158936Y-93442946D01*
X153069442Y-93532440D01*
X153064011Y-93541848D01*
X153026060Y-93570968D01*
X153009884Y-93573098D01*
X148886404Y-93573098D01*
X148842210Y-93554792D01*
X148396038Y-93108620D01*
X148382489Y-93088341D01*
X148382488Y-93088340D01*
X148379355Y-93080775D01*
X148379355Y-93077011D01*
X148374598Y-93056859D01*
X148374598Y-90205022D01*
X151551398Y-90205022D01*
X151551398Y-90338173D01*
X151551399Y-90338181D01*
X151585858Y-90466787D01*
X151585862Y-90466796D01*
X151652434Y-90582101D01*
X151652441Y-90582110D01*
X151746585Y-90676254D01*
X151746594Y-90676261D01*
X151861899Y-90742833D01*
X151861902Y-90742834D01*
X151861905Y-90742836D01*
X151861906Y-90742836D01*
X151861908Y-90742837D01*
X151940610Y-90763924D01*
X151990521Y-90777298D01*
X151990522Y-90777298D01*
X152123674Y-90777298D01*
X152123675Y-90777298D01*
X152252291Y-90742836D01*
X152367605Y-90676259D01*
X152461759Y-90582105D01*
X152528336Y-90466791D01*
X152562798Y-90338175D01*
X152562798Y-90205021D01*
X152555399Y-90177407D01*
X152561642Y-90129982D01*
X152571571Y-90117041D01*
X154261673Y-88426940D01*
X154276745Y-88420697D01*
X154289692Y-88410764D01*
X154298064Y-88411866D01*
X154305866Y-88408635D01*
X154320939Y-88414878D01*
X154337118Y-88417009D01*
X154342259Y-88423709D01*
X154350060Y-88426941D01*
X154366237Y-88454961D01*
X154373289Y-88481283D01*
X154367044Y-88528709D01*
X154357112Y-88541651D01*
X153182935Y-89715831D01*
X153111344Y-89787421D01*
X153111342Y-89787424D01*
X153072598Y-89880963D01*
X153072598Y-90970384D01*
X153054292Y-91014578D01*
X153041349Y-91024510D01*
X153031941Y-91029941D01*
X153031935Y-91029946D01*
X152942446Y-91119436D01*
X152942443Y-91119440D01*
X152879156Y-91229055D01*
X152879155Y-91229058D01*
X152846399Y-91351306D01*
X152846398Y-91351314D01*
X152846398Y-91477881D01*
X152846399Y-91477889D01*
X152879155Y-91600137D01*
X152879156Y-91600140D01*
X152879157Y-91600141D01*
X152942442Y-91709755D01*
X153031941Y-91799254D01*
X153129633Y-91855656D01*
X153141555Y-91862539D01*
X153141558Y-91862540D01*
X153195640Y-91877031D01*
X153263813Y-91895298D01*
X153263814Y-91895298D01*
X153390382Y-91895298D01*
X153390383Y-91895298D01*
X153390391Y-91895296D01*
X153394446Y-91894209D01*
X153512641Y-91862539D01*
X153622255Y-91799254D01*
X153711754Y-91709755D01*
X153775039Y-91600141D01*
X153807798Y-91477883D01*
X153807798Y-91351313D01*
X153775039Y-91229055D01*
X153711754Y-91119441D01*
X153711749Y-91119436D01*
X153622260Y-91029946D01*
X153622254Y-91029941D01*
X153612847Y-91024510D01*
X153583727Y-90986559D01*
X153581598Y-90970384D01*
X153581598Y-90062890D01*
X153599904Y-90018696D01*
X154112658Y-89505942D01*
X154717031Y-88901568D01*
X154761224Y-88883263D01*
X154777399Y-88885392D01*
X154788532Y-88888375D01*
X154805009Y-88892791D01*
X154805012Y-88892791D01*
X154805014Y-88892792D01*
X154805015Y-88892792D01*
X154938167Y-88892792D01*
X154938168Y-88892792D01*
X155066784Y-88858330D01*
X155182098Y-88791753D01*
X155276252Y-88697599D01*
X155342829Y-88582285D01*
X155377291Y-88453669D01*
X155377291Y-88320515D01*
X155353175Y-88230510D01*
X155342830Y-88191902D01*
X155342826Y-88191893D01*
X155276254Y-88076588D01*
X155276247Y-88076579D01*
X155182103Y-87982435D01*
X155182094Y-87982428D01*
X155066789Y-87915856D01*
X155066780Y-87915852D01*
X154939458Y-87881737D01*
X154926515Y-87871805D01*
X154911440Y-87865562D01*
X154908207Y-87857758D01*
X154901507Y-87852617D01*
X154899377Y-87836441D01*
X154893134Y-87821368D01*
X154896366Y-87813564D01*
X154895264Y-87805191D01*
X154911437Y-87777176D01*
X154950539Y-87738073D01*
X154994730Y-87719769D01*
X155010906Y-87721898D01*
X155022039Y-87724881D01*
X155038516Y-87729297D01*
X155038519Y-87729297D01*
X155038521Y-87729298D01*
X155038522Y-87729298D01*
X155171674Y-87729298D01*
X155171675Y-87729298D01*
X155300291Y-87694836D01*
X155415605Y-87628259D01*
X155509759Y-87534105D01*
X155576336Y-87418791D01*
X155610798Y-87290175D01*
X155610798Y-87157021D01*
X155576336Y-87028405D01*
X155509759Y-86913091D01*
X155509757Y-86913089D01*
X155509754Y-86913085D01*
X155415610Y-86818941D01*
X155415601Y-86818934D01*
X155300296Y-86752362D01*
X155300287Y-86752358D01*
X155171681Y-86717899D01*
X155171676Y-86717898D01*
X155171675Y-86717898D01*
X155038521Y-86717898D01*
X155038520Y-86717898D01*
X155038514Y-86717899D01*
X154909908Y-86752358D01*
X154909899Y-86752362D01*
X154794594Y-86818934D01*
X154794585Y-86818941D01*
X154700441Y-86913085D01*
X154700434Y-86913094D01*
X154633862Y-87028399D01*
X154633858Y-87028408D01*
X154599399Y-87157014D01*
X154599398Y-87157022D01*
X154599398Y-87290177D01*
X154606796Y-87317788D01*
X154600551Y-87365214D01*
X154590619Y-87378157D01*
X152211657Y-89757119D01*
X152167463Y-89775425D01*
X152151288Y-89773296D01*
X152123677Y-89765898D01*
X152123675Y-89765898D01*
X151990521Y-89765898D01*
X151990520Y-89765898D01*
X151990514Y-89765899D01*
X151861908Y-89800358D01*
X151861899Y-89800362D01*
X151746594Y-89866934D01*
X151746585Y-89866941D01*
X151652441Y-89961085D01*
X151652434Y-89961094D01*
X151585862Y-90076399D01*
X151585858Y-90076408D01*
X151551399Y-90205014D01*
X151551398Y-90205022D01*
X148374598Y-90205022D01*
X148374598Y-86776022D01*
X150662398Y-86776022D01*
X150662398Y-86909173D01*
X150662399Y-86909181D01*
X150696858Y-87037787D01*
X150696862Y-87037796D01*
X150763434Y-87153101D01*
X150763441Y-87153110D01*
X150857585Y-87247254D01*
X150857594Y-87247261D01*
X150972899Y-87313833D01*
X150972902Y-87313834D01*
X150972905Y-87313836D01*
X150972906Y-87313836D01*
X150972908Y-87313837D01*
X150987654Y-87317788D01*
X151101521Y-87348298D01*
X151160992Y-87348298D01*
X151205186Y-87366604D01*
X152050619Y-88212037D01*
X152068925Y-88256231D01*
X152066796Y-88272404D01*
X152059399Y-88300014D01*
X152059398Y-88300023D01*
X152059398Y-88433173D01*
X152059399Y-88433181D01*
X152093858Y-88561787D01*
X152093862Y-88561796D01*
X152160434Y-88677101D01*
X152160441Y-88677110D01*
X152254585Y-88771254D01*
X152254594Y-88771261D01*
X152369899Y-88837833D01*
X152369902Y-88837834D01*
X152369905Y-88837836D01*
X152369906Y-88837836D01*
X152369908Y-88837837D01*
X152396194Y-88844880D01*
X152498521Y-88872298D01*
X152498522Y-88872298D01*
X152631674Y-88872298D01*
X152631675Y-88872298D01*
X152760291Y-88837836D01*
X152875605Y-88771259D01*
X152969759Y-88677105D01*
X153036336Y-88561791D01*
X153070798Y-88433175D01*
X153070798Y-88300021D01*
X153036336Y-88171405D01*
X153035008Y-88169105D01*
X152969761Y-88056094D01*
X152969754Y-88056085D01*
X152875610Y-87961941D01*
X152875601Y-87961934D01*
X152760296Y-87895362D01*
X152760287Y-87895358D01*
X152631681Y-87860899D01*
X152631676Y-87860898D01*
X152631675Y-87860898D01*
X152498521Y-87860898D01*
X152498519Y-87860898D01*
X152498514Y-87860899D01*
X152470904Y-87868296D01*
X152423478Y-87862050D01*
X152410537Y-87852119D01*
X151655737Y-87097319D01*
X151637431Y-87053125D01*
X151639560Y-87036954D01*
X151673798Y-86909175D01*
X151673798Y-86776021D01*
X151639336Y-86647405D01*
X151625706Y-86623798D01*
X151572761Y-86532094D01*
X151572754Y-86532085D01*
X151478610Y-86437941D01*
X151478601Y-86437934D01*
X151363296Y-86371362D01*
X151363287Y-86371358D01*
X151234681Y-86336899D01*
X151234676Y-86336898D01*
X151234675Y-86336898D01*
X151101521Y-86336898D01*
X151101520Y-86336898D01*
X151101514Y-86336899D01*
X150972908Y-86371358D01*
X150972899Y-86371362D01*
X150857594Y-86437934D01*
X150857585Y-86437941D01*
X150763441Y-86532085D01*
X150763434Y-86532094D01*
X150696862Y-86647399D01*
X150696858Y-86647408D01*
X150662399Y-86776014D01*
X150662398Y-86776022D01*
X148374598Y-86776022D01*
X148374598Y-85000811D01*
X148392904Y-84956617D01*
X148405849Y-84946684D01*
X148415255Y-84941254D01*
X148504754Y-84851755D01*
X148568039Y-84742141D01*
X148600798Y-84619883D01*
X148600798Y-84493313D01*
X148578073Y-84408503D01*
X148568040Y-84371058D01*
X148568039Y-84371055D01*
X148563189Y-84362655D01*
X148504754Y-84261441D01*
X148415255Y-84171942D01*
X148338205Y-84127457D01*
X148305640Y-84108656D01*
X148305637Y-84108655D01*
X148183389Y-84075899D01*
X148183384Y-84075898D01*
X148183383Y-84075898D01*
X148056813Y-84075898D01*
X148056812Y-84075898D01*
X148056806Y-84075899D01*
X147934558Y-84108655D01*
X147934555Y-84108656D01*
X147857505Y-84153141D01*
X147824941Y-84171942D01*
X147824940Y-84171943D01*
X147824936Y-84171946D01*
X147735446Y-84261436D01*
X147735443Y-84261440D01*
X147672156Y-84371055D01*
X147672155Y-84371058D01*
X147639399Y-84493306D01*
X147639398Y-84493314D01*
X147639398Y-84619881D01*
X147639399Y-84619889D01*
X147672155Y-84742137D01*
X147672156Y-84742140D01*
X147679053Y-84754085D01*
X147735442Y-84851755D01*
X147824941Y-84941254D01*
X147834345Y-84946683D01*
X147863467Y-84984631D01*
X147865598Y-85000811D01*
X147865598Y-93056860D01*
X147864263Y-93069709D01*
X147862212Y-93079468D01*
X147859273Y-93084561D01*
X147840198Y-93155748D01*
X147840198Y-93184265D01*
X147838863Y-93190621D01*
X147828748Y-93205413D01*
X147821892Y-93221966D01*
X146879466Y-94164392D01*
X146835272Y-94182698D01*
X146829003Y-94182698D01*
X146784809Y-94164392D01*
X142645163Y-90024745D01*
X142626857Y-89980551D01*
X142628987Y-89964372D01*
X142631798Y-89953883D01*
X142631798Y-89827313D01*
X142612990Y-89757119D01*
X142599040Y-89705058D01*
X142599039Y-89705055D01*
X142592140Y-89693105D01*
X142535754Y-89595441D01*
X142446255Y-89505942D01*
X142336641Y-89442657D01*
X142336640Y-89442656D01*
X142336639Y-89442656D01*
X142324420Y-89439382D01*
X142286470Y-89410260D01*
X142278098Y-89379012D01*
X142278098Y-87604598D01*
X142239917Y-87604598D01*
X142195723Y-87586292D01*
X142177417Y-87542098D01*
X142195723Y-87497904D01*
X143340223Y-86353404D01*
X143384417Y-86335098D01*
X143992884Y-86335098D01*
X144037078Y-86353404D01*
X144047010Y-86366347D01*
X144052442Y-86375755D01*
X144141941Y-86465254D01*
X144251555Y-86528539D01*
X144251558Y-86528540D01*
X144264811Y-86532091D01*
X144373813Y-86561298D01*
X144373814Y-86561298D01*
X144501098Y-86561298D01*
X144545292Y-86579604D01*
X144563598Y-86623798D01*
X144563598Y-88176384D01*
X144545292Y-88220578D01*
X144532349Y-88230510D01*
X144522941Y-88235941D01*
X144522935Y-88235946D01*
X144433446Y-88325436D01*
X144433443Y-88325440D01*
X144370156Y-88435055D01*
X144370155Y-88435058D01*
X144337399Y-88557306D01*
X144337398Y-88557314D01*
X144337398Y-88683881D01*
X144337399Y-88683889D01*
X144370155Y-88806137D01*
X144370156Y-88806140D01*
X144370157Y-88806141D01*
X144433442Y-88915755D01*
X144522941Y-89005254D01*
X144631925Y-89068175D01*
X144632555Y-89068539D01*
X144632558Y-89068540D01*
X144645811Y-89072091D01*
X144754813Y-89101298D01*
X144754814Y-89101298D01*
X144881382Y-89101298D01*
X144881383Y-89101298D01*
X145003641Y-89068539D01*
X145113255Y-89005254D01*
X145202754Y-88915755D01*
X145266039Y-88806141D01*
X145298798Y-88683883D01*
X145298798Y-88557313D01*
X145266039Y-88435055D01*
X145202754Y-88325441D01*
X145175718Y-88298405D01*
X145113260Y-88235946D01*
X145113254Y-88235941D01*
X145103847Y-88230510D01*
X145074727Y-88192559D01*
X145072598Y-88176384D01*
X145072598Y-86725540D01*
X145090903Y-86681347D01*
X145205069Y-86567180D01*
X145205072Y-86567179D01*
X145213860Y-86558391D01*
X145213861Y-86558391D01*
X145285453Y-86486799D01*
X145324198Y-86393259D01*
X145324198Y-85876466D01*
X145324199Y-85876457D01*
X145324199Y-85767938D01*
X145324198Y-85767936D01*
X145290211Y-85685885D01*
X145290211Y-85685884D01*
X145285453Y-85674398D01*
X145210306Y-85599250D01*
X145210291Y-85599237D01*
X144923682Y-85312627D01*
X144923682Y-85312626D01*
X144843300Y-85232244D01*
X144843295Y-85232240D01*
X144762712Y-85198862D01*
X144762707Y-85198861D01*
X144749760Y-85193498D01*
X144749759Y-85193497D01*
X144749757Y-85193497D01*
X144641240Y-85193497D01*
X144641232Y-85193498D01*
X144625348Y-85193498D01*
X144581154Y-85175192D01*
X144562848Y-85130998D01*
X144571220Y-85099751D01*
X144631039Y-84996141D01*
X144663798Y-84873883D01*
X144663798Y-84747313D01*
X144631721Y-84627601D01*
X144631040Y-84625058D01*
X144631039Y-84625055D01*
X144621015Y-84607693D01*
X144567754Y-84515441D01*
X144478255Y-84425942D01*
X144401205Y-84381457D01*
X144368640Y-84362656D01*
X144368637Y-84362655D01*
X144246389Y-84329899D01*
X144246384Y-84329898D01*
X144246383Y-84329898D01*
X144246382Y-84329898D01*
X144246098Y-84329898D01*
X144245965Y-84329843D01*
X144242324Y-84329364D01*
X144242452Y-84328387D01*
X144201904Y-84311592D01*
X144183598Y-84267398D01*
X144183598Y-81952098D01*
X144201904Y-81907904D01*
X144246098Y-81889598D01*
X153731041Y-81889598D01*
X153775235Y-81907904D01*
G37*
%TD.AperFunction*%
%TA.AperFunction,Conductor*%
G36*
X134769092Y-81907904D02*
G01*
X134787398Y-81952098D01*
X134787398Y-81956173D01*
X134787399Y-81956181D01*
X134821858Y-82084787D01*
X134821862Y-82084796D01*
X134888434Y-82200101D01*
X134888441Y-82200110D01*
X134982590Y-82294258D01*
X134982591Y-82294259D01*
X135007348Y-82308552D01*
X135036468Y-82346502D01*
X135038598Y-82362679D01*
X135038598Y-82981975D01*
X135038598Y-83083221D01*
X135046830Y-83103094D01*
X135077342Y-83176759D01*
X135077343Y-83176761D01*
X135375892Y-83475309D01*
X135394198Y-83519503D01*
X135394198Y-87542098D01*
X135375892Y-87586292D01*
X135331698Y-87604598D01*
X133704598Y-87604598D01*
X133660404Y-87586292D01*
X133642098Y-87542098D01*
X133642098Y-81952098D01*
X133660404Y-81907904D01*
X133704598Y-81889598D01*
X134724898Y-81889598D01*
X134769092Y-81907904D01*
G37*
%TD.AperFunction*%
%TA.AperFunction,Conductor*%
G36*
X141435765Y-81907904D02*
G01*
X141454071Y-81952098D01*
X141435765Y-81996292D01*
X137462386Y-85969672D01*
X137391358Y-86040699D01*
X137341131Y-86127694D01*
X137341131Y-86127696D01*
X137315133Y-86224718D01*
X137315133Y-87542098D01*
X137296827Y-87586292D01*
X137252633Y-87604598D01*
X137159498Y-87604598D01*
X137115304Y-87586292D01*
X137096998Y-87542098D01*
X137096998Y-84408503D01*
X137115303Y-84364310D01*
X137551538Y-83928074D01*
X137595731Y-83909769D01*
X137611906Y-83911898D01*
X137623039Y-83914881D01*
X137639516Y-83919297D01*
X137639519Y-83919297D01*
X137639521Y-83919298D01*
X137639522Y-83919298D01*
X137772674Y-83919298D01*
X137772675Y-83919298D01*
X137901291Y-83884836D01*
X138016605Y-83818259D01*
X138110759Y-83724105D01*
X138177336Y-83608791D01*
X138211798Y-83480175D01*
X138211798Y-83347021D01*
X138177336Y-83218405D01*
X138110759Y-83103091D01*
X138110757Y-83103089D01*
X138110754Y-83103085D01*
X138016610Y-83008941D01*
X138016601Y-83008934D01*
X137901296Y-82942362D01*
X137901287Y-82942358D01*
X137772681Y-82907899D01*
X137772676Y-82907898D01*
X137772675Y-82907898D01*
X137639521Y-82907898D01*
X137639520Y-82907898D01*
X137639514Y-82907899D01*
X137510908Y-82942358D01*
X137510899Y-82942362D01*
X137395594Y-83008934D01*
X137395585Y-83008941D01*
X137301441Y-83103085D01*
X137301434Y-83103094D01*
X137234862Y-83218399D01*
X137234858Y-83218408D01*
X137200399Y-83347014D01*
X137200398Y-83347022D01*
X137200398Y-83480177D01*
X137207796Y-83507788D01*
X137201551Y-83555214D01*
X137191619Y-83568157D01*
X136698335Y-84061443D01*
X136626744Y-84133033D01*
X136626742Y-84133036D01*
X136587998Y-84226575D01*
X136587998Y-87542098D01*
X136569692Y-87586292D01*
X136525498Y-87604598D01*
X136372098Y-87604598D01*
X136327904Y-87586292D01*
X136309598Y-87542098D01*
X136309598Y-83124679D01*
X136327904Y-83080485D01*
X136340848Y-83070552D01*
X136365605Y-83056259D01*
X136459759Y-82962105D01*
X136526336Y-82846791D01*
X136560798Y-82718175D01*
X136560798Y-82585021D01*
X136553399Y-82557407D01*
X136559642Y-82509982D01*
X136569571Y-82497041D01*
X137158709Y-81907903D01*
X137202903Y-81889598D01*
X141391571Y-81889598D01*
X141435765Y-81907904D01*
G37*
%TD.AperFunction*%
%TA.AperFunction,Conductor*%
G36*
X143656292Y-81907904D02*
G01*
X143674598Y-81952098D01*
X143674598Y-84505975D01*
X143674598Y-84607221D01*
X143706443Y-84684104D01*
X143706706Y-84684783D01*
X143706582Y-84689965D01*
X143708780Y-84723492D01*
X143702398Y-84747310D01*
X143702398Y-84873881D01*
X143702399Y-84873889D01*
X143735155Y-84996137D01*
X143735156Y-84996140D01*
X143735157Y-84996141D01*
X143798442Y-85105755D01*
X143887941Y-85195254D01*
X143931483Y-85220393D01*
X143936624Y-85227093D01*
X143944427Y-85230325D01*
X143950670Y-85245398D01*
X143960603Y-85258343D01*
X143959500Y-85266715D01*
X143962733Y-85274519D01*
X143956489Y-85289591D01*
X143954360Y-85305769D01*
X143944427Y-85318713D01*
X143861749Y-85401392D01*
X143817555Y-85419698D01*
X143043054Y-85419698D01*
X142998860Y-85401392D01*
X142980554Y-85357198D01*
X142998860Y-85313004D01*
X143022273Y-85289591D01*
X143063759Y-85248105D01*
X143130336Y-85132791D01*
X143164798Y-85004175D01*
X143164798Y-84871021D01*
X143133466Y-84754085D01*
X143130337Y-84742408D01*
X143130333Y-84742399D01*
X143063761Y-84627094D01*
X143063754Y-84627085D01*
X142969610Y-84532941D01*
X142969601Y-84532934D01*
X142854296Y-84466362D01*
X142854287Y-84466358D01*
X142725681Y-84431899D01*
X142725676Y-84431898D01*
X142725675Y-84431898D01*
X142592521Y-84431898D01*
X142592520Y-84431898D01*
X142592514Y-84431899D01*
X142463908Y-84466358D01*
X142463899Y-84466362D01*
X142348594Y-84532934D01*
X142348585Y-84532941D01*
X142254441Y-84627085D01*
X142254434Y-84627094D01*
X142187862Y-84742399D01*
X142187858Y-84742408D01*
X142153399Y-84871014D01*
X142153398Y-84871022D01*
X142153398Y-85004173D01*
X142153399Y-85004181D01*
X142187858Y-85132787D01*
X142187862Y-85132796D01*
X142254434Y-85248101D01*
X142254441Y-85248110D01*
X142331360Y-85325029D01*
X142349666Y-85369223D01*
X142331360Y-85413417D01*
X140158986Y-87585792D01*
X140114792Y-87604098D01*
X139322179Y-87604098D01*
X139277985Y-87585792D01*
X139268054Y-87572851D01*
X139253759Y-87548091D01*
X139253757Y-87548089D01*
X139253754Y-87548085D01*
X139159610Y-87453941D01*
X139159601Y-87453934D01*
X139044296Y-87387362D01*
X139044287Y-87387358D01*
X138915681Y-87352899D01*
X138915676Y-87352898D01*
X138915675Y-87352898D01*
X138782521Y-87352898D01*
X138782520Y-87352898D01*
X138782514Y-87352899D01*
X138653908Y-87387358D01*
X138653899Y-87387362D01*
X138538594Y-87453934D01*
X138538585Y-87453941D01*
X138444441Y-87548085D01*
X138444436Y-87548091D01*
X138429854Y-87573349D01*
X138391904Y-87602469D01*
X138375728Y-87604598D01*
X138140633Y-87604598D01*
X138096439Y-87586292D01*
X138078133Y-87542098D01*
X138078133Y-86458858D01*
X138096438Y-86414665D01*
X142603199Y-81907903D01*
X142647393Y-81889598D01*
X143612098Y-81889598D01*
X143656292Y-81907904D01*
G37*
%TD.AperFunction*%
%TD*%
M02*
