%TF.GenerationSoftware,KiCad,Pcbnew,10.0.3*%
%TF.CreationDate,2026-06-06T15:41:04+09:00*%
%TF.ProjectId,HM_Nightfall-mini-2e_v1,484d5f4e-6967-4687-9466-616c6c2d6d69,rev?*%
%TF.SameCoordinates,Original*%
%TF.FileFunction,Paste,Top*%
%TF.FilePolarity,Positive*%
%FSLAX46Y46*%
G04 Gerber Fmt 4.6, Leading zero omitted, Abs format (unit mm)*
G04 Created by KiCad (PCBNEW 10.0.3) date 2026-06-06 15:41:04*
%MOMM*%
%LPD*%
G01*
G04 APERTURE LIST*
G04 Aperture macros list*
%AMRoundRect*
0 Rectangle with rounded corners*
0 $1 Rounding radius*
0 $2 $3 $4 $5 $6 $7 $8 $9 X,Y pos of 4 corners*
0 Add a 4 corners polygon primitive as box body*
4,1,4,$2,$3,$4,$5,$6,$7,$8,$9,$2,$3,0*
0 Add four circle primitives for the rounded corners*
1,1,$1+$1,$2,$3*
1,1,$1+$1,$4,$5*
1,1,$1+$1,$6,$7*
1,1,$1+$1,$8,$9*
0 Add four rect primitives between the rounded corners*
20,1,$1+$1,$2,$3,$4,$5,0*
20,1,$1+$1,$4,$5,$6,$7,0*
20,1,$1+$1,$6,$7,$8,$9,0*
20,1,$1+$1,$8,$9,$2,$3,0*%
%AMRotRect*
0 Rectangle, with rotation*
0 The origin of the aperture is its center*
0 $1 length*
0 $2 width*
0 $3 Rotation angle, in degrees counterclockwise*
0 Add horizontal line*
21,1,$1,$2,0,0,$3*%
G04 Aperture macros list end*
%ADD10C,0.000000*%
%ADD11R,0.700000X0.900000*%
%ADD12R,1.000000X1.000000*%
%ADD13R,0.600000X0.700000*%
%ADD14R,1.050000X0.600000*%
%ADD15R,0.700000X0.600000*%
%ADD16R,0.800000X0.800000*%
%ADD17R,0.900000X0.700000*%
%ADD18RotRect,0.600000X0.700000X45.000000*%
%ADD19R,1.400000X1.000000*%
%ADD20R,1.016000X0.355600*%
%ADD21R,1.016000X0.304800*%
%ADD22R,0.355600X1.016000*%
%ADD23R,0.304800X1.016000*%
%ADD24RoundRect,0.040000X0.380000X0.120000X-0.380000X0.120000X-0.380000X-0.120000X0.380000X-0.120000X0*%
%ADD25RotRect,0.700000X0.900000X45.000000*%
%ADD26RotRect,0.254800X0.908000X225.000000*%
%ADD27RotRect,0.254800X0.908000X135.000000*%
%ADD28RotRect,5.689600X5.689600X315.000000*%
%ADD29R,1.300000X0.200000*%
%ADD30R,0.250000X0.800000*%
%ADD31R,0.600000X0.600000*%
%ADD32R,0.900000X1.000000*%
%ADD33R,0.700000X1.500000*%
%ADD34R,1.000000X0.800000*%
%ADD35R,0.610000X0.350000*%
%ADD36R,0.350000X0.610000*%
G04 APERTURE END LIST*
D10*
%TO.C,U5*%
G36*
X145985060Y-92684598D02*
G01*
X145102732Y-93566926D01*
X144220404Y-92684598D01*
X145102732Y-91802270D01*
X145985060Y-92684598D01*
G37*
G36*
X146990848Y-91678809D02*
G01*
X146108521Y-92561137D01*
X145226193Y-91678809D01*
X146108521Y-90796481D01*
X146990848Y-91678809D01*
G37*
G36*
X146990848Y-93690387D02*
G01*
X146108521Y-94572715D01*
X145226193Y-93690387D01*
X146108521Y-92808059D01*
X146990848Y-93690387D01*
G37*
G36*
X147996637Y-90673021D02*
G01*
X147114309Y-91555348D01*
X146231981Y-90673021D01*
X147114309Y-89790693D01*
X147996637Y-90673021D01*
G37*
G36*
X147996637Y-92684598D02*
G01*
X147114309Y-93566926D01*
X146231981Y-92684598D01*
X147114309Y-91802270D01*
X147996637Y-92684598D01*
G37*
G36*
X147996637Y-94696175D02*
G01*
X147114309Y-95578503D01*
X146231981Y-94696175D01*
X147114309Y-93813848D01*
X147996637Y-94696175D01*
G37*
G36*
X149002426Y-89667232D02*
G01*
X148120098Y-90549560D01*
X147237770Y-89667232D01*
X148120098Y-88784904D01*
X149002426Y-89667232D01*
G37*
G36*
X149002426Y-91678809D02*
G01*
X148120098Y-92561137D01*
X147237770Y-91678809D01*
X148120098Y-90796481D01*
X149002426Y-91678809D01*
G37*
G36*
X149002426Y-93690387D02*
G01*
X148120098Y-94572715D01*
X147237770Y-93690387D01*
X148120098Y-92808059D01*
X149002426Y-93690387D01*
G37*
G36*
X149002426Y-95701964D02*
G01*
X148120098Y-96584292D01*
X147237770Y-95701964D01*
X148120098Y-94819636D01*
X149002426Y-95701964D01*
G37*
G36*
X150008215Y-90673021D02*
G01*
X149125887Y-91555348D01*
X148243559Y-90673021D01*
X149125887Y-89790693D01*
X150008215Y-90673021D01*
G37*
G36*
X150008215Y-92684598D02*
G01*
X149125887Y-93566926D01*
X148243559Y-92684598D01*
X149125887Y-91802270D01*
X150008215Y-92684598D01*
G37*
G36*
X150008215Y-94696175D02*
G01*
X149125887Y-95578503D01*
X148243559Y-94696175D01*
X149125887Y-93813848D01*
X150008215Y-94696175D01*
G37*
G36*
X151014003Y-91678809D02*
G01*
X150131675Y-92561137D01*
X149249348Y-91678809D01*
X150131675Y-90796481D01*
X151014003Y-91678809D01*
G37*
G36*
X151014003Y-93690387D02*
G01*
X150131675Y-94572715D01*
X149249348Y-93690387D01*
X150131675Y-92808059D01*
X151014003Y-93690387D01*
G37*
G36*
X152019792Y-92684598D02*
G01*
X151137464Y-93566926D01*
X150255136Y-92684598D01*
X151137464Y-91802270D01*
X152019792Y-92684598D01*
G37*
%TD*%
D11*
%TO.C,C_MCU-M0*%
X145976098Y-100812598D03*
X144676098Y-100812598D03*
%TD*%
D12*
%TO.C,SPK1*%
X155773098Y-115368598D03*
X150373098Y-115368598D03*
X155773098Y-118768598D03*
%TD*%
D13*
%TO.C,R1FR0*%
X161955098Y-86334598D03*
X160955098Y-86334598D03*
%TD*%
D14*
%TO.C,U1*%
X133545098Y-114081598D03*
X133545098Y-112181598D03*
X130945098Y-113131598D03*
%TD*%
D13*
%TO.C,R8*%
X154097098Y-110591598D03*
X155097098Y-110591598D03*
%TD*%
D15*
%TO.C,R7*%
X158280098Y-103614598D03*
X158280098Y-104614598D03*
%TD*%
D16*
%TO.C,LED3*%
X134277098Y-135749598D03*
X134277098Y-137249598D03*
%TD*%
D13*
%TO.C,R25*%
X148001098Y-117322598D03*
X149001098Y-117322598D03*
%TD*%
D17*
%TO.C,C1*%
X147993098Y-109209598D03*
X147993098Y-107909598D03*
%TD*%
D15*
%TO.C,R27*%
X163233098Y-134078598D03*
X163233098Y-133078598D03*
%TD*%
D13*
%TO.C,R6*%
X147874098Y-100812598D03*
X148874098Y-100812598D03*
%TD*%
D18*
%TO.C,R3*%
X144845545Y-87196151D03*
X145552651Y-86489045D03*
%TD*%
D15*
%TO.C,R2R0*%
X160820098Y-84548598D03*
X160820098Y-83548598D03*
%TD*%
D19*
%TO.C,Q2*%
X131828098Y-116372598D03*
X131828098Y-118272598D03*
X134440098Y-117322598D03*
%TD*%
D20*
%TO.C,UBUZ0*%
X153784298Y-112496598D03*
X153784298Y-113512598D03*
D21*
X155409898Y-113004598D03*
%TD*%
D15*
%TO.C,R2L0*%
X136309098Y-84548598D03*
X136309098Y-83548598D03*
%TD*%
D13*
%TO.C,R0*%
X146096098Y-111607598D03*
X147096098Y-111607598D03*
%TD*%
D17*
%TO.C,C14*%
X129578098Y-114005598D03*
X129578098Y-115305598D03*
%TD*%
D15*
%TO.C,R1*%
X157010098Y-103614598D03*
X157010098Y-104614598D03*
%TD*%
D22*
%TO.C,UR0*%
X155613098Y-84861398D03*
X156629098Y-84861398D03*
D23*
X156121098Y-83235798D03*
%TD*%
D24*
%TO.C,U6*%
X155126098Y-105978598D03*
X155126098Y-105328598D03*
X155126098Y-104678598D03*
X155126098Y-104028598D03*
X152036098Y-104028598D03*
X152036098Y-104678598D03*
X152036098Y-105328598D03*
X152036098Y-105978598D03*
%TD*%
D13*
%TO.C,R4R0*%
X156621098Y-86334598D03*
X155621098Y-86334598D03*
%TD*%
D16*
%TO.C,LED1*%
X149251098Y-71221598D03*
X147751098Y-71221598D03*
%TD*%
D22*
%TO.C,UL0*%
X140627098Y-84861398D03*
X141643098Y-84861398D03*
D23*
X141135098Y-83235798D03*
%TD*%
D17*
%TO.C,C8*%
X138214098Y-118196598D03*
X138214098Y-119496598D03*
%TD*%
D11*
%TO.C,C_MCU-C0*%
X144676098Y-99669598D03*
X145976098Y-99669598D03*
%TD*%
D25*
%TO.C,C21*%
X142453479Y-87810217D03*
X143372717Y-86890979D03*
%TD*%
D26*
%TO.C,U5*%
X147588354Y-88263766D03*
X147234800Y-88617320D03*
X146881247Y-88970873D03*
X146527694Y-89324427D03*
X146174140Y-89677980D03*
X145820587Y-90031533D03*
X145467033Y-90385087D03*
X145113480Y-90738640D03*
X144759927Y-91092194D03*
X144406373Y-91445747D03*
X144052820Y-91799300D03*
X143699266Y-92152854D03*
D27*
X143699266Y-93216342D03*
X144052820Y-93569896D03*
X144406373Y-93923449D03*
X144759927Y-94277002D03*
X145113480Y-94630556D03*
X145467033Y-94984109D03*
X145820587Y-95337663D03*
X146174140Y-95691216D03*
X146527694Y-96044769D03*
X146881247Y-96398323D03*
X147234800Y-96751876D03*
X147588354Y-97105430D03*
D26*
X148651842Y-97105430D03*
X149005396Y-96751876D03*
X149358949Y-96398323D03*
X149712502Y-96044769D03*
X150066056Y-95691216D03*
X150419609Y-95337663D03*
X150773163Y-94984109D03*
X151126716Y-94630556D03*
X151480269Y-94277002D03*
X151833823Y-93923449D03*
X152187376Y-93569896D03*
X152540930Y-93216342D03*
D27*
X152540930Y-92152854D03*
X152187376Y-91799300D03*
X151833823Y-91445747D03*
X151480269Y-91092194D03*
X151126716Y-90738640D03*
X150773163Y-90385087D03*
X150419609Y-90031533D03*
X150066056Y-89677980D03*
X149712502Y-89324427D03*
X149358949Y-88970873D03*
X149005396Y-88617320D03*
X148651842Y-88263766D03*
D28*
X148120098Y-92684598D03*
%TD*%
D13*
%TO.C,R4L0*%
X141635098Y-86334598D03*
X140635098Y-86334598D03*
%TD*%
D16*
%TO.C,P-LED0*%
X147751098Y-118973598D03*
X149251098Y-118973598D03*
%TD*%
D29*
%TO.C,U2*%
X140693098Y-116949473D03*
X140743098Y-117449598D03*
X140743098Y-117949723D03*
D30*
X140892911Y-118849598D03*
X141393036Y-118849598D03*
X141893160Y-118849598D03*
X142393285Y-118849598D03*
D29*
X142543098Y-117949723D03*
X142543098Y-117449598D03*
X142543098Y-116949473D03*
D30*
X142393285Y-116049598D03*
X141893160Y-116049598D03*
X141393036Y-116049598D03*
X140892911Y-116049598D03*
%TD*%
D25*
%TO.C,C_MCU0*%
X142834479Y-89207217D03*
X143753717Y-88287979D03*
%TD*%
D17*
%TO.C,C15*%
X134912098Y-112481598D03*
X134912098Y-113781598D03*
%TD*%
D22*
%TO.C,UFL0*%
X137960098Y-84861398D03*
X138976098Y-84861398D03*
D23*
X138468098Y-83235798D03*
%TD*%
D15*
%TO.C,R2FL0*%
X134912098Y-84548598D03*
X134912098Y-83548598D03*
%TD*%
D17*
%TO.C,C_MCU2*%
X155232098Y-93304598D03*
X155232098Y-94604598D03*
%TD*%
%TO.C,C7*%
X136944098Y-122671598D03*
X136944098Y-121371598D03*
%TD*%
D31*
%TO.C,D3*%
X150370098Y-112354598D03*
X150370098Y-113654598D03*
X152220098Y-113004598D03*
%TD*%
D17*
%TO.C,C3*%
X146723098Y-107909598D03*
X146723098Y-109209598D03*
%TD*%
D16*
%TO.C,LED2*%
X162725098Y-135622598D03*
X162725098Y-137122598D03*
%TD*%
D17*
%TO.C,C9*%
X136944098Y-118196598D03*
X136944098Y-119496598D03*
%TD*%
D11*
%TO.C,C_MCU3*%
X148105098Y-85572598D03*
X149405098Y-85572598D03*
%TD*%
D22*
%TO.C,UFR0*%
X158153098Y-84861398D03*
X159169098Y-84861398D03*
D23*
X158661098Y-83235798D03*
%TD*%
D15*
%TO.C,R2FR0*%
X162217098Y-84548598D03*
X162217098Y-83548598D03*
%TD*%
D13*
%TO.C,R1FL0*%
X135047098Y-86334598D03*
X136047098Y-86334598D03*
%TD*%
%TO.C,R4*%
X139222098Y-116433598D03*
X138222098Y-116433598D03*
%TD*%
D15*
%TO.C,R1R0*%
X149263098Y-78976598D03*
X149263098Y-79976598D03*
%TD*%
%TO.C,R1L0*%
X147739098Y-78976598D03*
X147739098Y-79976598D03*
%TD*%
D13*
%TO.C,R4FR0*%
X159161098Y-86334598D03*
X158161098Y-86334598D03*
%TD*%
D29*
%TO.C,U3*%
X140693098Y-122537473D03*
X140743098Y-123037598D03*
X140743098Y-123537723D03*
D30*
X140892911Y-124437598D03*
X141393036Y-124437598D03*
X141893160Y-124437598D03*
X142393285Y-124437598D03*
D29*
X142543098Y-123537723D03*
X142543098Y-123037598D03*
X142543098Y-122537473D03*
D30*
X142393285Y-121637598D03*
X141893160Y-121637598D03*
X141393036Y-121637598D03*
X140892911Y-121637598D03*
%TD*%
D32*
%TO.C,RESET0*%
X160838098Y-137350598D03*
X156738098Y-137350598D03*
X160838098Y-138950598D03*
X156738098Y-138950598D03*
%TD*%
D15*
%TO.C,R28*%
X133769098Y-134205598D03*
X133769098Y-133205598D03*
%TD*%
D17*
%TO.C,C2*%
X149771098Y-107909598D03*
X149771098Y-109209598D03*
%TD*%
%TO.C,C6*%
X138214098Y-122671598D03*
X138214098Y-121371598D03*
%TD*%
D11*
%TO.C,C_MCU1*%
X147724098Y-99669598D03*
X149024098Y-99669598D03*
%TD*%
D32*
%TO.C,MODE0*%
X140264098Y-137350598D03*
X136164098Y-137350598D03*
X140264098Y-138950598D03*
X136164098Y-138950598D03*
%TD*%
D17*
%TO.C,C5*%
X152057098Y-109590598D03*
X152057098Y-108290598D03*
%TD*%
D13*
%TO.C,R5*%
X138222098Y-115163598D03*
X139222098Y-115163598D03*
%TD*%
%TO.C,R26*%
X149001098Y-72618598D03*
X148001098Y-72618598D03*
%TD*%
D33*
%TO.C,POWER0*%
X148918098Y-121287598D03*
X151918098Y-121287598D03*
X153418098Y-121287598D03*
D34*
X147518098Y-121987598D03*
X147518098Y-124087598D03*
X154818098Y-124087598D03*
X154818098Y-121987598D03*
%TD*%
D15*
%TO.C,R12*%
X130086098Y-116949598D03*
X130086098Y-117949598D03*
%TD*%
D13*
%TO.C,R4FL0*%
X138968098Y-86334598D03*
X137968098Y-86334598D03*
%TD*%
D35*
%TO.C,U4*%
X147341098Y-104253598D03*
X147341098Y-104753598D03*
X147341098Y-105253598D03*
X147341098Y-105753598D03*
D36*
X148001098Y-105913598D03*
X148501098Y-105913598D03*
X149001098Y-105913598D03*
D35*
X149661098Y-105753598D03*
X149661098Y-105253598D03*
X149661098Y-104753598D03*
X149661098Y-104253598D03*
D36*
X149001098Y-104093598D03*
X148501098Y-104093598D03*
X148001098Y-104093598D03*
%TD*%
D13*
%TO.C,R2*%
X151176098Y-85572598D03*
X152176098Y-85572598D03*
%TD*%
M02*
