M48
; DRILL file KiCad 10.0.3 date 2026-06-06T15:41:05
; FORMAT={-:-/ absolute / metric / decimal}
; #@! TF.CreationDate,2026-06-06T15:41:05+09:00
; #@! TF.GenerationSoftware,Kicad,Pcbnew,10.0.3
; #@! TF.FileFunction,MixedPlating,1,2
FMAT,2
METRIC
; #@! TA.AperFunction,Plated,PTH,ViaDrill
T1C0.300
; #@! TA.AperFunction,Plated,PTH,ViaDrill
T2C0.350
; #@! TA.AperFunction,Plated,PTH,ComponentDrill
T3C0.650
; #@! TA.AperFunction,Plated,PTH,ComponentDrill
T4C0.813
; #@! TA.AperFunction,NonPlated,NPTH,ComponentDrill
T5C0.900
%
G90
G05
T1
X129.832Y-111.862
X129.832Y-119.228
X130.594Y-119.99
X132.372Y-113.005
X132.372Y-123.673
X133.007Y-117.323
X133.261Y-120.244
X133.642Y-126.467
X134.15Y-87.097
X134.277Y-82.525
X134.912Y-115.418
X135.801Y-118.212
X136.69Y-111.608
X136.817Y-114.021
X137.071Y-124.308
X137.325Y-82.525
X137.833Y-111.735
X137.96Y-99.289
X138.468Y-117.323
X138.849Y-124.054
X138.976Y-120.498
X139.103Y-122.022
X139.23Y-112.497
X139.738Y-124.054
X139.865Y-85.573
X139.865Y-87.097
X139.992Y-99.162
X140.119Y-82.525
X140.26Y-115.164
X140.5Y-111.989
X140.5Y-119.863
X140.629Y-99.924
X141.011Y-102.085
X141.135Y-113.894
X141.392Y-119.865
X141.516Y-111.989
X141.645Y-101.451
X141.9Y-120.622
X142.151Y-89.891
X142.278Y-83.287
X143.167Y-119.99
X143.421Y-124.435
X143.675Y-89.891
X144.183Y-84.811
X144.435Y-104.115
X144.437Y-86.081
X144.818Y-88.621
X144.945Y-82.652
X145.326Y-104.242
X145.453Y-105.258
X145.453Y-106.909
X145.453Y-109.195
X145.58Y-107.925
X145.707Y-112.751
X145.707Y-114.402
X145.707Y-118.085
X145.707Y-122.403
X145.961Y-101.829
X145.976Y-98.527
X146.85Y-93.193
X146.85Y-100.813
X147.231Y-106.782
X147.231Y-121.006
X147.612Y-98.4
X147.612Y-103.226
X147.739Y-82.906
X147.993Y-95.606
X148.12Y-84.557
X148.247Y-102.591
X148.25Y-120.114
X148.628Y-124.308
X148.755Y-106.909
X148.85Y-104.904
X149.009Y-98.654
X149.136Y-86.97
X149.898Y-103.353
X149.901Y-101.577
X150.279Y-92.812
X150.406Y-84.303
X150.914Y-106.782
X150.914Y-108.941
X151.295Y-100.686
X152.057Y-103.226
X152.184Y-101.194
X152.565Y-82.525
X152.819Y-101.956
X153.073Y-106.655
X153.2Y-86.97
X153.327Y-91.415
X153.454Y-93.828
X153.454Y-101.321
X153.708Y-92.431
X153.835Y-94.717
X154.089Y-100.686
X154.722Y-100.051
X154.724Y-92.304
X154.724Y-95.606
X154.851Y-83.541
X154.851Y-116.939
X154.978Y-106.909
X155.105Y-109.576
X155.359Y-101.448
X155.867Y-116.942
X155.992Y-100.559
X156.121Y-87.605
X156.248Y-89.256
X156.248Y-105.766
X156.375Y-93.955
X156.629Y-96.622
X156.629Y-101.448
X157.391Y-82.779
X157.391Y-87.224
X157.645Y-121.768
X157.899Y-102.083
X159.677Y-82.525
X159.677Y-99.035
X160.439Y-119.736
X161.455Y-85.446
X162.725Y-82.525
X162.725Y-87.097
X164.63Y-125.829
T2
X130.975Y-125.578
X131.483Y-115.164
X133.134Y-89.637
X134.023Y-88.875
X134.991Y-88.113
X135.109Y-138.081
X135.293Y-81.89
X136.055Y-82.652
X136.436Y-97.003
X136.817Y-92.558
X137.697Y-89.002
X137.706Y-83.414
X138.849Y-87.859
X138.999Y-101.067
X141.77Y-88.494
X142.659Y-84.938
X143.04Y-82.398
X146.977Y-91.034
X148.247Y-111.354
X148.501Y-80.644
X149.136Y-94.717
X149.263Y-90.907
X149.771Y-111.354
X151.041Y-105.258
X151.168Y-86.843
X152.057Y-90.272
X152.565Y-88.367
X154.089Y-82.398
X154.132Y-104.58
X154.47Y-85.065
X154.872Y-88.387
X155.105Y-87.224
X155.486Y-112.116
X155.74Y-95.606
X156.629Y-78.588
X157.391Y-77.826
X158.788Y-99.924
X158.788Y-100.94
X158.788Y-102.486
X159.804Y-103.548
X160.208Y-114.021
X160.312Y-107.29
X160.335Y-97.511
X160.947Y-87.351
X161.455Y-118.593
X162.471Y-119.609
X162.956Y-89.383
X163.106Y-93.701
X164.503Y-117.3
X165.265Y-117.958
T3
X164.63Y-119.101
X164.63Y-120.371
X164.63Y-121.641
X164.63Y-122.911
X164.63Y-124.181
X165.9Y-119.101
X165.9Y-120.371
X165.9Y-121.641
X165.9Y-122.911
X165.9Y-124.181
T4
X131.112Y-96.649
X132.007Y-122.022
X133.633Y-96.34
X134.007Y-122.022
X135.176Y-96.141
X137.697Y-95.832
X143.328Y-80.644
X144.785Y-78.563
X145.741Y-77.342
X147.198Y-75.261
X149.805Y-75.261
X151.262Y-77.342
X152.218Y-78.563
X153.675Y-80.644
X159.306Y-95.832
X161.827Y-96.141
X163.37Y-96.34
X165.891Y-96.649
T5
X149.668Y-123.038
X152.668Y-123.038
M30
