%TF.GenerationSoftware,KiCad,Pcbnew,10.0.3*%
%TF.CreationDate,2026-06-06T15:41:04+09:00*%
%TF.ProjectId,HM_Nightfall-mini-2e_v1,484d5f4e-6967-4687-9466-616c6c2d6d69,rev?*%
%TF.SameCoordinates,Original*%
%TF.FileFunction,Profile,NP*%
%FSLAX46Y46*%
G04 Gerber Fmt 4.6, Leading zero omitted, Abs format (unit mm)*
G04 Created by KiCad (PCBNEW 10.0.3) date 2026-06-06 15:41:04*
%MOMM*%
%LPD*%
G01*
G04 APERTURE LIST*
%TA.AperFunction,Profile*%
%ADD10C,0.001000*%
%TD*%
G04 APERTURE END LIST*
D10*
X129001098Y-92000680D02*
X129001098Y-99003598D01*
X129001098Y-111003598D02*
X129001098Y-118595888D01*
X129001098Y-111003598D02*
X135501098Y-111003598D01*
X129001102Y-92000680D02*
G75*
G02*
X130995546Y-82421792I23999998J-20D01*
G01*
X129913152Y-125286988D02*
G75*
G02*
X129001102Y-118595888I24087948J6691088D01*
G01*
X130995539Y-82421789D02*
X133523948Y-76613267D01*
X133492517Y-138172707D02*
X129913148Y-125286988D01*
X133523948Y-76613268D02*
G75*
G02*
X143609830Y-70003626I10085852J-4390332D01*
G01*
X134565767Y-128110566D02*
X135828830Y-135408248D01*
X134565767Y-128110566D02*
G75*
G02*
X136339398Y-126003599I1773633J306966D01*
G01*
X135501098Y-99003598D02*
X129001098Y-99003598D01*
X135501098Y-111003598D02*
X135501098Y-99003598D01*
X135901308Y-140003598D02*
X140677708Y-140003598D01*
X135901308Y-140003601D02*
G75*
G02*
X133492504Y-138172710I-8J2500001D01*
G01*
X137051098Y-105003598D02*
G75*
G02*
X135951098Y-105003598I-550000J0D01*
G01*
X135951098Y-105003598D02*
G75*
G02*
X137051098Y-105003598I550000J0D01*
G01*
X137053667Y-116003598D02*
G75*
G02*
X135953667Y-116003598I-550000J0D01*
G01*
X135953667Y-116003598D02*
G75*
G02*
X137053667Y-116003598I550000J0D01*
G01*
X137011249Y-136403595D02*
G75*
G02*
X135828786Y-135408256I-49J1199995D01*
G01*
X137011248Y-136403598D02*
X159990948Y-136403598D01*
X141979680Y-139333579D02*
G75*
G02*
X140677708Y-140003604I-1301980J929979D01*
G01*
X142082339Y-139189866D02*
X141979680Y-139333579D01*
X142082339Y-139189866D02*
G75*
G02*
X143221567Y-138603572I1139261J-813734D01*
G01*
X153392366Y-70003598D02*
X143609830Y-70003598D01*
X153392366Y-70003598D02*
G75*
G02*
X163478277Y-76613254I34J-11000002D01*
G01*
X153780629Y-138603598D02*
X143221567Y-138603598D01*
X153780628Y-138603600D02*
G75*
G02*
X154919837Y-139189880I-28J-1400000D01*
G01*
X155022516Y-139333579D02*
X154919857Y-139189866D01*
X156324488Y-140003594D02*
G75*
G02*
X155022527Y-139333571I12J1599994D01*
G01*
X156324488Y-140003598D02*
X161100888Y-140003598D01*
X161051098Y-105003598D02*
G75*
G02*
X159951098Y-105003598I-550000J0D01*
G01*
X159951098Y-105003598D02*
G75*
G02*
X161051098Y-105003598I550000J0D01*
G01*
X161051098Y-116003598D02*
G75*
G02*
X159951098Y-116003598I-550000J0D01*
G01*
X159951098Y-116003598D02*
G75*
G02*
X161051098Y-116003598I550000J0D01*
G01*
X160662798Y-126003598D02*
X136339398Y-126003598D01*
X160662798Y-126003598D02*
G75*
G02*
X162436434Y-128110567I2J-1800002D01*
G01*
X161173366Y-135408248D02*
X162436429Y-128110566D01*
X161173370Y-135408247D02*
G75*
G02*
X159990948Y-136403648I-1182470J204647D01*
G01*
X161501098Y-99003598D02*
X161501098Y-111003598D01*
X161501098Y-111003598D02*
X168001098Y-111003598D01*
X163478248Y-76613267D02*
X166006657Y-82421789D01*
X163509682Y-138172707D02*
G75*
G02*
X161100888Y-140003587I-2408782J669107D01*
G01*
X166006660Y-82421786D02*
G75*
G02*
X168001106Y-92000680I-22005560J-9578914D01*
G01*
X167089048Y-125286988D02*
X163509679Y-138172707D01*
X168001098Y-99003598D02*
X161501098Y-99003598D01*
X168001098Y-99003598D02*
X168001098Y-92000680D01*
X168001098Y-118595888D02*
X168001098Y-111003598D01*
X168001101Y-118595888D02*
G75*
G02*
X167089051Y-125286989I-25000001J-12D01*
G01*
M02*
